<svg id="レイヤー_1" data-name="レイヤー 1" xmlns="http://www.w3.org/2000/svg" viewBox="0 0 201.26 34.02"><defs><style>.cls-1{fill:#231815;}.cls-2{fill:#9fa0a0;}.cls-3,.cls-4{fill:none;stroke-width:0.43px;}.cls-3{stroke:#fff;}.cls-4{stroke:#231815;}.cls-5{fill:#727171;}.cls-6{fill:#fff;}</style></defs><rect class="cls-1" width="201.26" height="34.02"/><rect class="cls-2" width="36.85" height="34.02"/><line class="cls-3" y1="22.89" x2="201.26" y2="22.89"/><line class="cls-4" y1="22.89" x2="36.85" y2="22.89"/><line class="cls-3" y1="22.89" x2="201.26" y2="22.89"/><path class="cls-5" d="M38.7,12a7.46,7.46,0,0,1,7.69-7.63A7.12,7.12,0,0,1,53.9,11.8a7.39,7.39,0,0,1-7.51,7.55A7.28,7.28,0,0,1,38.7,12Zm13,.45c0-3.57-1.57-7.41-5.7-7.41-2.25,0-5.17,1.53-5.17,6.27,0,3.2,1.55,7.35,5.81,7.35C49.27,18.68,51.73,16.73,51.73,12.47Z"/><path class="cls-5" d="M55.93,7.54c0-1.6-.09-2-1.06-2.09l-.69-.07a.35.35,0,0,1,0-.54c1.17-.11,2.64-.17,4.65-.17a8.18,8.18,0,0,1,3.63.6A2.85,2.85,0,0,1,64.13,8c0,1.55-.91,2.35-2.21,3,0,.21.17.28.41.32a3.58,3.58,0,0,1,2.9,3.61c0,2.51-1.86,4.2-5.75,4.2-.63,0-1.69-.07-2.6-.07s-1.68.05-2.48.07a.42.42,0,0,1,0-.54l.39-.07c1.15-.19,1.19-.43,1.19-2.7Zm1.77,2.88c0,.6,0,.65,1.13.6,2.2-.08,3.39-.73,3.39-2.76S60.64,5.34,59,5.34a2.56,2.56,0,0,0-1,.13c-.22.06-.31.17-.31.56Zm0,5a4.24,4.24,0,0,0,.46,2.36,2.09,2.09,0,0,0,1.71.61c1.92,0,3.39-.87,3.39-3,0-1.71-.86-3.7-4.3-3.7-1.17,0-1.26.13-1.26.56Z"/><path class="cls-5" d="M73.77,14c-.15-.48-.24-.54-.89-.54H69.62c-.54,0-.67.06-.82.51L68,16.23a8.46,8.46,0,0,0-.47,1.8c0,.26.1.39.62.43l.72.07a.35.35,0,0,1,0,.54C68.3,19,67.63,19,66.61,19c-.71,0-1.49.05-2.07.07a.42.42,0,0,1,0-.54l.71-.07a1.44,1.44,0,0,0,1.3-1.06c.39-1,1-2.4,1.9-4.82l2.2-5.84A3,3,0,0,0,71,5.21a2.45,2.45,0,0,0,1.13-.82.3.3,0,0,1,.32.19c.28,1,.63,2,.95,2.9l3,8.69c.63,1.86.91,2.18,1.84,2.29l.59.07c.15.1.1.45,0,.54C77.88,19,77.12,19,76.15,19s-1.86.05-2.49.07a.37.37,0,0,1,0-.54l.63-.07c.45,0,.75-.17.75-.39a4.51,4.51,0,0,0-.28-1.14Zm-4.28-1.93c-.17.5-.15.52.45.52H72.6c.63,0,.67-.09.48-.67L71.91,8.39A13.52,13.52,0,0,0,71.41,7h0c-.06.11-.28.63-.52,1.28Z"/><path class="cls-5" d="M87.29,13.23c.49,1,1,2,1.49,3h0c.59-1,1.13-2.14,1.67-3.24l2-4.13c1-2,1.6-3.16,1.64-4.15.74.06,1.19.06,1.62.06s1.26,0,1.93-.06a.45.45,0,0,1,0,.54l-.45,0c-1.37.13-1.54.54-1.52,2.05,0,2.3.07,6.3.24,9.41.06,1.08,0,1.66,1.06,1.75l.69.07a.4.4,0,0,1,0,.54C96.82,19,95.93,19,95.16,19s-1.73,0-2.62.07a.4.4,0,0,1,0-.54l.62-.07c1.06-.11,1.06-.45,1.06-1.84l-.06-9h0c-.16.24-1,2-1.41,2.81L90.75,14.2c-1,1.9-2,3.94-2.34,4.93a.24.24,0,0,1-.22.09.24.24,0,0,1-.19-.09c-.37-1.14-1.41-3.26-1.9-4.32l-1.95-4.18c-.45-1-.91-2.11-1.38-3.11h0c-.08,1.34-.15,2.6-.21,3.85s-.15,3.24-.15,5.08c0,1.6.13,1.95,1,2l.82.07c.15.13.13.47,0,.54-.74-.05-1.58-.07-2.4-.07s-1.47,0-2.21.07c-.13-.11-.17-.44,0-.54l.48-.07c.9-.13,1.21-.26,1.34-1.77s.24-2.62.36-4.76c.11-1.79.2-3.63.24-4.82,0-1.36-.13-1.69-1.45-1.86l-.34,0a.4.4,0,0,1,.08-.54c.65,0,1.17.06,1.71.06s1.08,0,1.8-.06a8.17,8.17,0,0,0,1.12,3.56Z"/><path class="cls-5" d="M101.28,8c0-2.4-.22-2.66-1.49-2.77l-.54,0a.42.42,0,0,1,0-.54c1.25,0,2,.06,2.9.06s1.6,0,2.46-.06a.44.44,0,0,1,0,.54l-.33,0c-1.27.17-1.32.48-1.32,2.77v8a11.75,11.75,0,0,1-.5,4.19,4.69,4.69,0,0,1-4.26,3.12c-.25,0-.92,0-.92-.46s.32-1,.77-1a2.57,2.57,0,0,1,.8.13,3.27,3.27,0,0,0,.91.15.92.92,0,0,0,.87-.56c.49-1,.56-4.26.56-5.43Z"/><path class="cls-6" d="M108.37,8.76V19.38H106V8.76Z"/><path class="cls-6" d="M112.17,11l3.49,5.6h0V11h1.72v8.35h-1.84l-3.47-5.59h0v5.59h-1.72V11Z"/><path class="cls-6" d="M118.34,12.58V11h6.84v1.55h-2.5v6.8h-1.83v-6.8Z"/><path class="cls-6" d="M132.37,11v1.55H128v1.79h4v1.42h-4v2.05h4.51v1.54h-6.34V11Z"/><path class="cls-6" d="M138.29,11a2.71,2.71,0,0,1,1,.18,2.28,2.28,0,0,1,.77.5,2,2,0,0,1,.49.73,2.25,2.25,0,0,1,.17.9,2.47,2.47,0,0,1-.31,1.27,1.92,1.92,0,0,1-1,.82v0a1.48,1.48,0,0,1,.56.29,1.78,1.78,0,0,1,.37.45,2.21,2.21,0,0,1,.2.58c0,.21.07.42.09.64s0,.28,0,.46,0,.37,0,.55a2.77,2.77,0,0,0,.1.53,1.13,1.13,0,0,0,.19.43h-1.84a3.15,3.15,0,0,1-.18-.95c0-.36-.06-.71-.11-1.05a1.64,1.64,0,0,0-.4-1,1.36,1.36,0,0,0-1-.3h-1.84v3.26h-1.83V11Zm-.66,3.78a1.38,1.38,0,0,0,1-.28,1.17,1.17,0,0,0,.32-.91,1.14,1.14,0,0,0-.32-.89,1.44,1.44,0,0,0-1-.27h-2v2.35Z"/><path class="cls-6" d="M143.93,19.38,141.23,11h1.88L145,16.9h0L146.88,11h1.89L146,19.38Z"/><path class="cls-6" d="M151.42,11v8.35h-1.83V11Z"/><path class="cls-6" d="M159.33,11v1.55h-4.41v1.79H159v1.42h-4.05v2.05h4.51v1.54h-6.34V11Z"/><path class="cls-6" d="M167,19.38l-1.41-5.68h0l-1.4,5.68h-1.85L160.07,11h1.84l1.32,5.69h0L164.71,11h1.71l1.43,5.76h0L169.24,11H171l-2.24,8.35Z"/></svg>