<svg id="レイヤー_1" data-name="レイヤー 1" xmlns="http://www.w3.org/2000/svg" viewBox="0 0 116.4 9.4"><defs><style>.cls-1{fill:#231815;}</style></defs><path class="cls-1" d="M108.09,4a2.17,2.17,0,0,0,.37.89,1.16,1.16,0,0,0,.74.58.76.76,0,0,0,.35-.12,1.43,1.43,0,0,1,.44-.1c1.47-.09,3.11-.15,4.19-.15h1.4c.6,0,.82-.14.82-.47s-.18-.37-.43-.46a2.63,2.63,0,0,0-.74-.15,7.49,7.49,0,0,1-1.22.13c-.19,0-2.7.17-4.7.17a1.33,1.33,0,0,1-1.06-.38Zm-7.44,3a1.41,1.41,0,0,0,.41.72.91.91,0,0,0,.52.31.63.63,0,0,0,.27-.08,1.68,1.68,0,0,1,.46-.13c.67-.11,1.52-.2,2.22-.25.33,0,.76,0,1.2,0a8,8,0,0,1,1,.08,2.92,2.92,0,0,0,.45.05.29.29,0,0,0,.31-.31c0-.14-.06-.28-.34-.46a1.47,1.47,0,0,0-.6-.22.67.67,0,0,0-.28.07.86.86,0,0,1-.38.11l-.69,0c.14-.51.27-1,.38-1.35a.67.67,0,0,1,.29-.43.39.39,0,0,0,.17-.29c0-.14-.16-.32-.5-.55S105.09,4,105,4a.37.37,0,0,0-.18.1.63.63,0,0,1-.41.21l-1.59.15-.41,0a1,1,0,0,1-.58-.21l-.14.07a1.82,1.82,0,0,0,.48.82.36.36,0,0,0,.25.12.44.44,0,0,0,.17-.06,1.28,1.28,0,0,1,.36-.11c.54-.1,1.16-.18,1.74-.23-.06.58-.19,1.35-.33,2.05L102,7.18l-.53,0h-.11a.9.9,0,0,1-.55-.27ZM93.27,2.11c.59.13.61.3.61.77,0,1.13,0,2.28,0,3.1a3.6,3.6,0,0,0,.09,1.11,1.26,1.26,0,0,0,.43.55,4.4,4.4,0,0,0,2.1.35,15.38,15.38,0,0,0,2.28-.15c.36-.08.46-.22.46-.54s-.39-.55-.86-.55a1.1,1.1,0,0,0-.42.06,1.25,1.25,0,0,1-.31.11,9.44,9.44,0,0,1-2,.17c-.49,0-.65-.09-.77-.22a1.42,1.42,0,0,1-.09-.71c0-.26,0-.7,0-1.13.85-.15,2-.43,2.77-.65l1-.28c.25-.08.3-.19.3-.35s-.17-.42-.42-.63a2,2,0,0,0-1.1-.47l-.08.15c.25.17.28.31.28.37a.31.31,0,0,1-.14.23A9.58,9.58,0,0,1,94.8,4.54c0-.62,0-.94.07-1.27A.61.61,0,0,1,95,2.88a.4.4,0,0,0,.15-.3c0-.17-.17-.38-.5-.58A1.61,1.61,0,0,0,94,1.78a2.67,2.67,0,0,0-.7.13ZM98.91.69a2.11,2.11,0,0,1,.87.91c.14.29.27.35.41.35a.38.38,0,0,0,.41-.39.77.77,0,0,0-.4-.66A2.55,2.55,0,0,0,99,.56Zm-1,.73a2.32,2.32,0,0,1,.79.9c.14.28.26.42.46.42a.4.4,0,0,0,.41-.44.78.78,0,0,0-.35-.6A2.74,2.74,0,0,0,98,1.28Zm-10,3.05a5.44,5.44,0,0,1,1.29.66,10,10,0,0,1-3.63,3.45l.07.17a8.13,8.13,0,0,0,4.26-3,3.86,3.86,0,0,1,.71.7.62.62,0,0,0,.49.24c.28,0,.47-.24.47-.57s-.34-.74-1.1-1.15c.31-.52.67-1.16,1-1.74a.92.92,0,0,1,.33-.32c.18-.1.31-.23.31-.36s-.12-.31-.47-.57a1.22,1.22,0,0,0-.55-.27c-.07,0-.16.07-.29.17a.74.74,0,0,1-.46.2c-.53,0-.85.08-1.07.08h-.19c.06-.12.09-.19.12-.24s.07-.08.13-.14a.29.29,0,0,0,.1-.25c0-.28-.66-.74-1.07-.74a2.56,2.56,0,0,0-.76.12V1c.43.06.6.17.6.33a1.68,1.68,0,0,1-.13.58,12.83,12.83,0,0,1-2.27,3.69l.09.15a8.67,8.67,0,0,0,3-3.37.64.64,0,0,0,.47.22c.18,0,.75-.05,1.24-.07a18.1,18.1,0,0,1-1,2A6.74,6.74,0,0,0,88,4.31ZM86,2.36a20.18,20.18,0,0,1-5.5,4.24,1.46,1.46,0,0,1-.61.18,1.06,1.06,0,0,1-.63-.35l-.14.05a1.14,1.14,0,0,0,.14.66c.39.54.83.88,1.11.88a.53.53,0,0,0,.39-.17,1.85,1.85,0,0,1,.39-.32,14.09,14.09,0,0,0,5-5.06ZM79,2a2.59,2.59,0,0,1,1,1.34c.12.32.22.62.66.62a.66.66,0,0,0,.59-.73c0-.5-.41-.89-1-1.13a3.67,3.67,0,0,0-1.17-.26ZM75.89,1c.43.11.6.3.6.4a.67.67,0,0,1-.13.32,17.5,17.5,0,0,1-1.63,2,18.49,18.49,0,0,1-3.19,2.82l.09.15a12.49,12.49,0,0,0,4-2.63c0,.22,0,.42,0,.81s0,1.3,0,1.82a5.26,5.26,0,0,1,0,.63,2.45,2.45,0,0,0-.07.42c0,.78.36,1.12.64,1.12s.51-.15.51-.66,0-1.13,0-1.94,0-1.31,0-1.82c0-.15,0-.31,0-.38s-.09-.37-.42-.55c.41-.4.68-.7,1.07-1.14A2.72,2.72,0,0,1,77.67,2a.39.39,0,0,0,.2-.33c0-.34-.42-.65-1-.84a1.33,1.33,0,0,0-.45-.07A2.33,2.33,0,0,0,75.9.8ZM67.58,8.44H65.07V7.06h2.51Zm0-2.86V6.79H65.07V5.71l.13-.13ZM65.46,3.87c.21-.35.4-.72.58-1.08H67a10.8,10.8,0,0,0,.4,1.08Zm-.2,1.43a1.67,1.67,0,0,0-.6-.25q.18-.22.33-.45c.1-.15.21-.3.3-.45H67.5a7.14,7.14,0,0,0,.4.71c-.17,0-.3.31-.37.44Zm5.92.76a7.65,7.65,0,0,1-3-1.91h2.63A.12.12,0,0,0,71,4c0-.13-.1-.24-1.1-1-.26.3-.43.53-.65.81H68a5.86,5.86,0,0,1-.73-1.08H69.6c.09,0,.14,0,.14-.12s-.1-.21-1-.87a7.54,7.54,0,0,0-.6.71h-2c.14-.32.27-.65.38-1h4.07c.11,0,.16-.06.16-.13S70.66,1.17,69.7.5c-.22.25-.43.5-.63.76H66.64c0-.15.1-.3.14-.46.34-.09.45-.18.45-.31s0-.23-1.42-.49c-.1.44-.21.85-.33,1.26H63.13l-1-.05v.38l1-.05h2.26c-.1.32-.22.65-.34,1H63.86l-1,0v.38l1,0h1.08c-.15.36-.32.73-.5,1.08H62.79l-1-.05V4.2l1,0h1.5l-.07.12a10.6,10.6,0,0,1-2.46,2.9l.09.12A8.44,8.44,0,0,0,64,5.73v.52c0,2-.05,2.59-.05,2.83s.1.26.28.26c.48,0,.8-.21.8-.42v-.2h2.51v.22a.24.24,0,0,0,.27.26c.47,0,.81-.15.81-.46s0-.78,0-2.18V5.94l.08-.06a6.6,6.6,0,0,0,1.21,1,.48.48,0,0,0,.2.08c.07,0,.11-.06.2-.19a1.37,1.37,0,0,1,.85-.59ZM53.59,3.61a.57.57,0,0,0,.46-.6c0-.48-.4-.93-1.14-1.18l-.12.08a2.29,2.29,0,0,1,.27,1.26.41.41,0,0,0,.32.44h-.63l-.87,0v.38l.87,0h1.18V5.18H52.79l-.87,0v.38l.87,0h.88a9.68,9.68,0,0,1-1.9,2.84l.1.11a7.28,7.28,0,0,0,2.05-1.6c0,1.53-.05,2.05-.05,2.28s.1.22.27.22c.44,0,.81-.15.81-.38s0-.78,0-2.52a2.23,2.23,0,0,1,.66,1,.55.55,0,0,0,.53.45.54.54,0,0,0,.54-.57.81.81,0,0,0-.38-.64,2.81,2.81,0,0,0-1.36-.46V5.46H57c.09,0,.15,0,.15-.12s-.09-.18-1-.85c-.25.26-.39.46-.58.69H54.9V4.12a.27.27,0,0,0,.16-.23H57c.09,0,.15,0,.15-.12s-.09-.2-1-.85c-.23.25-.41.46-.59.69h-.67a5.25,5.25,0,0,0,.89-1.22c.3,0,.38-.11.38-.22s-.15-.22-1-.48H57c.09,0,.15,0,.15-.12S57,1.4,56.17.73c-.23.26-.37.45-.55.68H55V.73c.29-.11.39-.17.39-.31S55.11.21,53.84.09c0,.38,0,.66,0,1v.31h-1l-.88,0v.38l.88-.05H55a14.24,14.24,0,0,1-.4,1.92Zm4.78,0V1.51l.1-.12a15,15,0,0,0,2-.18,1.42,1.42,0,0,0,.27,0c.2,0,.26-.06.26-.14s-.07-.26-1-.93a8.26,8.26,0,0,1-1.63.9A9.63,9.63,0,0,0,57.29.74c0,.55.05.73.05,3,0,2.76-.51,4.25-1.66,5.37l.09.11c1.71-.89,2.57-2.52,2.6-5.34h.82v.69c0,3.19-.07,4.1-.07,4.5,0,.16.11.26.33.26.46,0,.83-.18.83-.45s-.06-1.35-.06-4.31V4.12a.27.27,0,0,0,.16-.23h.69c.1,0,.15-.05.15-.12s-.11-.24-1-.92a8.71,8.71,0,0,0-.66.76ZM42.9,6.82a4.24,4.24,0,0,0,.82,1.37l-.52.07c-.32.05-.64.1-1,.13V7a.17.17,0,0,0,.1-.15Zm3.25,0c.07,0,.1,0,.1-.08s-.07-.14-.71-.6a6.19,6.19,0,0,0-.42.5H42.25V5.9h3.13c.07,0,.11,0,.11-.08s-.07-.13-.67-.56c-.14.16-.28.32-.38.46H42.25V5h3.13c.07,0,.11,0,.11-.08s-.07-.12-.67-.56l-.38.46H42.25V4.19l.07-.09H45.6c.06,0,.1,0,.1-.07s-.06-.13-.7-.58c-.15.17-.26.32-.38.48H42.35a3.32,3.32,0,0,0-.82-.24c0,.3,0,.63,0,1v2h-.47l-.64,0v.24l.64,0h.46V8.46l-1,.09c.25.73.32.85.4.85s.15-.14.18-.22a20,20,0,0,0,2.73-.85,3.86,3.86,0,0,0,1.65.95.28.28,0,0,0,.11,0c.07,0,.1,0,.15-.14a.92.92,0,0,1,.48-.45l0-.1a5.46,5.46,0,0,1-2.09-.74,6.72,6.72,0,0,0,1.12-.32h.1c.16,0,.22,0,.22-.11s-.07-.16-.7-.55a5.77,5.77,0,0,1-.94.83,3.85,3.85,0,0,1-.89-.91ZM35.43,5.9v.24l.57,0h2.14c.06,0,.1,0,.1-.08s0-.11-.68-.63a5.62,5.62,0,0,0-.46.53H36ZM34,6.57a7.06,7.06,0,0,0,3.14-2.46,4.44,4.44,0,0,0,2,2.12.3.3,0,0,0,.14.06s.07,0,.12-.13A.85.85,0,0,1,40,5.77l0-.1a5.17,5.17,0,0,1-2.69-1.62c.18,0,.21-.12.21-.17s-.05-.15-.88-.43a8.58,8.58,0,0,1-2.69,3Zm5.51.6c.06,0,.1,0,.1-.07s0-.12-.72-.67a6,6,0,0,0-.48.56H34.93l-.64,0V7.2l.64,0H36a7.44,7.44,0,0,1-.57,1.29H34.36c.24.81.3.9.39.9s.14,0,.21-.22a32.61,32.61,0,0,0,3.39-.56,2.37,2.37,0,0,1,.23.44A.4.4,0,0,0,39,9.3a.36.36,0,0,0,.35-.38.72.72,0,0,0-.2-.5,3.23,3.23,0,0,0-1.64-.89l-.06.08a3.13,3.13,0,0,1,.77.77c-.81,0-1.62.06-2.43.07a5.6,5.6,0,0,0,1-1.1c.15,0,.19-.08.2-.18Zm-8.41-.29a3.37,3.37,0,0,1-.47,1c-.16.2-.36.31-1.76.31-1.16,0-1.23-.06-1.23-.29V6.08c.28-.11.36-.19.36-.3s-.09-.18-1.46-.38c0,.22,0,.48,0,.75,0,1.39-.05,1.86-.05,2.22,0,.57.29.75,2.34.75,2.33,0,2.79-.32,2.79-.77,0-.3-.45-.34-.45-.6a7.89,7.89,0,0,1,.05-.85Zm-6-.69a3,3,0,0,1,0,.31,1.23,1.23,0,0,1-.57,1c-.32.25-.43.41-.43.66a.52.52,0,0,0,.53.54,1.12,1.12,0,0,0,1-1.24,2.16,2.16,0,0,0-.43-1.27Zm3.38-.4A1.75,1.75,0,0,1,29,6.94a.58.58,0,0,0,1.15-.07c0-.57-.48-1-1.61-1.21Zm3,.07a2.83,2.83,0,0,1,.77,1.65.61.61,0,0,0,.59.57c.37,0,.61-.27.61-.72A1.25,1.25,0,0,0,33,6.44a2.92,2.92,0,0,0-1.43-.7ZM26.41,3.71V1.88l.14-.15h1.73c0,.66,0,1.32,0,2Zm2.94,0c0-.66,0-1.32,0-2h1.91v2ZM28.26,4c0,.62,0,1,0,1.21s.09.22.27.22c.51,0,.88-.15.88-.4s0-.42,0-1h1.89v.22c0,.15.09.22.29.22.5,0,.8-.15.8-.39s0-.62,0-1.67V2.06c.29-.12.37-.21.37-.35s-.06-.22-.43-.49-.46-.33-.61-.33-.22,0-.45.56H29.33V.64c.31-.1.39-.2.39-.31S29.64.14,28.25,0c0,.4,0,.82,0,1.44H26.63c-.08-.12-.36-.25-1.28-.51,0,.42,0,.85,0,1.31,0,1.12,0,1.73,0,2.06,0,.15.09.22.29.22.44,0,.78-.14.78-.39V4ZM15,1.4c.3-.12.41-.19.41-.33S15.16.85,13.84.73c0,.42.05.92.05,1.62,0,4.1-.07,5.36-.07,5.77,0,.16.11.26.33.26.49,0,.9-.18.9-.45S15,6.34,15,2.38Zm3.08-.17c.3-.12.42-.19.42-.34S18.27.66,16.9.55c0,.42.05.94.05,1.67,0,5-.07,6.32-.07,6.75,0,.17.11.28.33.28.52,0,.92-.19.92-.48s-.07-1.63-.07-6.52ZM9.81,9.36c1.6-1,2.3-2.45,2.3-5.47V1.17c.36-.12.45-.21.45-.32S12.35.61,10.9.47c0,.66.06,1.25.06,3.45,0,2.93-.32,4.15-1.26,5.34Zm-7-5.29v.37l1,0H6.5c.1,0,.16-.05.16-.12s0-.18-1-.91L5,4.12H3.75l-1,0M2.19,5.79c-.24,0-.74,0-1,0v.38c.25,0,.75,0,1,0H6.05c-.15.74-.57,2.71-.61,3s.24.29.46.29c.41,0,.75-.17.79-.38l.47-2.53c.29-.15.42-.28.42-.42s0-.22-.45-.49-.46-.29-.62-.29-.26.07-.5.57ZM.09,5.72A10.82,10.82,0,0,0,4.81,1,7.54,7.54,0,0,0,8,4.75a.53.53,0,0,0,.2.08c.07,0,.11-.06.2-.2A1.5,1.5,0,0,1,9.29,4l0-.15A8.46,8.46,0,0,1,5,.88C5.35.79,5.4.7,5.4.62S5.28.4,4,0A14.32,14.32,0,0,1,0,5.61Z"/></svg>