<svg id="レイヤー_1" data-name="レイヤー 1" xmlns="http://www.w3.org/2000/svg" viewBox="0 0 141.73 420.65"><defs><style>.cls-1,.cls-15,.cls-5{fill:#fff;}.cls-2{fill:#f7f8f8;}.cls-14,.cls-3{fill:#c9caca;}.cls-4{fill:#231815;}.cls-5{font-size:11.34px;font-family:Futura-CondensedBold, Futura;font-weight:700;letter-spacing:0.92em;}.cls-6{letter-spacing:0.92em;}.cls-7{letter-spacing:0.92em;}.cls-8{letter-spacing:0.89em;}.cls-9{letter-spacing:0.93em;}.cls-10{letter-spacing:0.91em;}.cls-11{letter-spacing:0.93em;}.cls-12{letter-spacing:0em;}.cls-13{fill:none;stroke:#fff;stroke-width:2.84px;}.cls-14,.cls-15{font-size:43.25px;font-family:AGaramondPro-Regular, Adobe Garamond Pro;}.cls-16{letter-spacing:-0.06em;}.cls-17{letter-spacing:0.02em;}.cls-18{letter-spacing:-0.02em;}</style></defs><path class="cls-1" d="M257.32,486c0,.13.09.22.31.26a1.78,1.78,0,0,1,1.36,1.41,12,12,0,0,1,.22,2.15c.09,1.36.18,3.07.18,4.26,0,5.18,0,9,0,11.91-.05,4.3-.14,6.5-.27,7.91-.22,2.5-.26,2.72-.26,3.07,0,2.37,1.23,4.31,2.72,4.31s2.68-1.76,2.68-3.91c0-.18,0-.49,0-1.5-.13-4-.26-7.11-.31-10.1,0-2.24,0-4.44,0-7a55.88,55.88,0,0,1,.22-6.72,2.52,2.52,0,0,1,.7-1.76c.62-.53.7-.66.7-1.1a3.49,3.49,0,0,0-1.05-2.24,11.91,11.91,0,0,0-2.46-2.15,3.28,3.28,0,0,0-1.63-.58,4.13,4.13,0,0,0-1.93.71c-.62.35-1.06.79-1.06,1.1m12-10.86a9.4,9.4,0,0,0,1-2.28c.35-1.28,1.14-4.66,1.45-6.59,1.36-.93,1.5-1.06,1.5-1.76a1.8,1.8,0,0,0-.88-1.27,8.65,8.65,0,0,0-3.56-1.89c-.48,0-.84.3-1.32.87-.35.4-.4.49-1.8.66-4.44.53-6.86.88-7.34.88a2.86,2.86,0,0,1-1.62-.48c-.31-.31-.36-.31-.44-.31s-.36.35-.36,1a4.69,4.69,0,0,0,1.06,2.24,2.25,2.25,0,0,0,1.36.92,1.87,1.87,0,0,0,.79-.22,13,13,0,0,1,2.59-.79c1.19-.22,2.68-.39,4.84-.57.22,0,.26.13.26.57,0,.27-.09,1.58-.22,3.08-.17,2-.35,4.21-.61,6.1-3,.14-4.13.22-6.86.4-1.36.09-3.42.18-4.22.18a8.61,8.61,0,0,1-2.68-.31.41.41,0,0,0-.26-.09.2.2,0,0,0-.22.22,4,4,0,0,0,.44,1.14,8,8,0,0,0,1.19,1.8,2,2,0,0,0,1.45.84,3,3,0,0,0,1.14-.31c.35-.13.66-.22,1-.31a49.8,49.8,0,0,1,5.53-.88c1.63-.13,3.12-.17,4.53-.17a35,35,0,0,1,7.86.83,11,11,0,0,0,2.68.53,1.61,1.61,0,0,0,1.76-1.71,1.76,1.76,0,0,0-.88-1.41,8.81,8.81,0,0,0-3.34-1.49,2.63,2.63,0,0,0-.7.13,14,14,0,0,1-4.53.48Zm4.61-44.37a4,4,0,0,0-2.15-3.12,7.88,7.88,0,0,0-3-1.15c-.13,0-.22.05-.22.18s0,.13.22.26a6.38,6.38,0,0,1,2.07,3.43c.13.83.18,1,.44,1.32a1.49,1.49,0,0,0,1.23.61,1.43,1.43,0,0,0,1.45-1.53m3.12-.49c.92,0,1.45-.7,1.45-1.71,0-1.41-1.32-2.55-3.78-3.3a7.79,7.79,0,0,0-2.5-.39c-.22,0-.36,0-.36.17s.09.22.4.4a8.61,8.61,0,0,1,3.16,3.47c.44,1,.79,1.36,1.63,1.36m-20.52,9.05c0-1.71.18-3.64.26-4.08l.36-.35a2.07,2.07,0,0,0,.7-1.37c0-.66-.62-1.4-1.94-2.24-1.75-1.14-2.59-1.4-3.42-1.4a4.35,4.35,0,0,0-2.64.92c-.39.26-.7.61-.7.79s0,.09.17.13a3.75,3.75,0,0,1,1.19.49c1,.52,1.23.92,1.36,2.15,0,.7.18,7,.18,10.76,0,8.26,0,8.66,1.32,10,1.45,1.53,5.31,2.41,10.41,2.41,1.63,0,3.65-.13,4.79-.26,3.73-.48,5.32-1.36,5.32-2.9s-2.42-2.86-5.06-2.86a8.3,8.3,0,0,0-2.19.53,19.71,19.71,0,0,1-6.33.92c-2.55,0-3.38-.26-3.78-1-.18-.35-.22-.93-.22-3.17,0-2.76.18-6.63.18-8.34a12.72,12.72,0,0,1,1.18.57,2.89,2.89,0,0,0,1.72.48,71,71,0,0,0,7.9-.53c3.48-.39,4.84-1.05,4.84-2.19,0-.75-.53-1.41-1.72-2.07a6.56,6.56,0,0,0-2.81-1.05,2.92,2.92,0,0,0-1.8.66,21,21,0,0,1-9.27,3m6.28-38.53c.57-.83,1.28-1.71,2-2.68a1.87,1.87,0,0,1,.27-.31,2.13,2.13,0,0,0,.7-1.36c0-.57-.92-1.32-2.72-2.37a6.7,6.7,0,0,0-2.55-1.1,5.14,5.14,0,0,0-1.58.31c-.4.13-.75.35-.75.48s0,.18.22.26l.39.18.49.31a.84.84,0,0,1,.39.74,7.77,7.77,0,0,1-.61,2.47,26.92,26.92,0,0,1-2.37,4.7,39,39,0,0,1-4.05,5.36,26.74,26.74,0,0,1-1.89,1.93c-.52.44-.92.79-1.36,1.1l-1,.66c-.22.13-.26.17-.26.26a.16.16,0,0,0,.17.18,2.85,2.85,0,0,0,.44-.09,12.42,12.42,0,0,0,1.41-.48,25.53,25.53,0,0,0,2.77-1.32,35.73,35.73,0,0,0,4.39-3.08,27.63,27.63,0,0,0,4.17-4.39c1.59-.22,3.12-.44,4.22-.57s1.89-.22,2.07-.22.31,0,.31.17a9.85,9.85,0,0,1-.75,2.64,38.84,38.84,0,0,1-2.2,4.79,20.68,20.68,0,0,0-3.6-1.32,16,16,0,0,0-3.74-.53c-.17,0-.3.05-.3.14s.08.13.17.17a20.68,20.68,0,0,1,3.17,2.33c.79.75,1.53,1.49,2.15,2.2a33.12,33.12,0,0,1-7.95,7.9,28,28,0,0,1-4.66,2.77,26.54,26.54,0,0,1-2.9,1.15c-.75.26-1.67.52-2.51.74-.52.13-.61.18-.61.31s.09.22.31.22a6.2,6.2,0,0,0,.92-.09c.57-.09,1.36-.13,2.15-.26,1.1-.18,2.33-.4,3.21-.62a36.06,36.06,0,0,0,4.22-1.36,31.65,31.65,0,0,0,5.67-2.9,28.62,28.62,0,0,0,5.05-4.22,20.66,20.66,0,0,1,1.23,2.64,2,2,0,0,0,2,1.27,3,3,0,0,0,3-3.12,5.09,5.09,0,0,0-1.18-3.12,18.45,18.45,0,0,0-1.81-1.93,52.76,52.76,0,0,0,3.21-5.84c.31-.66.66-1.32,1-2.11.4-.09.92-.22,1.32-.35a1,1,0,0,0,.61-.93c0-.57-.35-1.05-1.36-2-1.27-1.18-2.85-2.24-3.42-2.24s-.71.09-2.2,1.32a2.39,2.39,0,0,1-1.23.62c-.75.13-1.71.26-3,.44-.31,0-.75.08-1.28.17m-6.19-12.13a84.9,84.9,0,0,0,10.85-7.11,46.14,46.14,0,0,0,6.85-6.37,39.6,39.6,0,0,0,4-5.45.89.89,0,0,0,.13-.35.24.24,0,0,0-.26-.22c-.13,0-.22.08-1,.74a43.34,43.34,0,0,1-4,3.34,91,91,0,0,1-14.77,8.35,31.59,31.59,0,0,1-5.4,1.63c-1.8,0-2.73-.58-3.12-2-.79.22-1.54,1.62-1.54,2.81a4.47,4.47,0,0,0,1.5,2.68,15.15,15.15,0,0,0,2.37,2.24,3.62,3.62,0,0,0,2.06.84,3.31,3.31,0,0,0,1.72-.75c.13-.09.52-.35.57-.4m-4-22.84a20.85,20.85,0,0,0-3.43.3c-.66.14-1.14.27-1.14.4s.08.18.3.26a14,14,0,0,1,5.67,5c.44.79.4.88.7,1A4.2,4.2,0,0,0,256,373a3,3,0,0,0,3.12-3.12c0-2.37-2.68-4-6.54-4m12.83-20.57c0-.52,0-.7,0-1.45,0-.48.09-.61.09-.83,0-1.28-.88-2-1.94-2.94.62-.66,2.38-2.64,3.08-3.39,1.1-1.23,1.32-1.54,2.2-2a1.52,1.52,0,0,0,1-1.23c0-.65-.53-1.27-2.29-2.72-1.36-1.1-2.06-1.45-2.94-1.45a8.26,8.26,0,0,0-2.95.88c-.48.22-.83.48-.83.66s0,.17.35.26a2.84,2.84,0,0,1,.75.44.93.93,0,0,1,.35.57,1.66,1.66,0,0,1-.13.57,22,22,0,0,1-1.41,3.08,44.43,44.43,0,0,1-9.05,11.34c-.61.57-1.45,1.14-2.11,1.66a14.65,14.65,0,0,1-2.46,1.54c-.66.31-.79.4-.79.53s.09.18.22.18a13.63,13.63,0,0,0,2.68-.71,32.73,32.73,0,0,0,12-7.95,120.22,120.22,0,0,1-.75,14c-.13.49-.22.7-.44,1.32a2.93,2.93,0,0,0-.17,1,12.36,12.36,0,0,0,.88,3.69c.57,1.45,1.53,2.29,2.59,2.29a2.27,2.27,0,0,0,1.89-1.23,5.47,5.47,0,0,0,.39-2.73c0-.83,0-1.89-.09-3-.21-3.21-.21-4-.21-5.8Zm-.15-30.06v5.28h-7.89l0-5.28Zm0-.92H257.3l0-4.4c0-.19.31-.46.54-.46h6.47c.88,0,.88.12.88,2.11Zm-7.2-5.7a6.8,6.8,0,0,0-2.71-1,20.88,20.88,0,0,0,2.9-3.56h7.05a11.41,11.41,0,0,0,1.41,3.14.71.71,0,0,0-.27,0c-.3,0-.61.27-1.68,1.49Zm.73-5.51a20.12,20.12,0,0,0,1.95-3.9h3.75a24.7,24.7,0,0,0,.58,3.9Zm20.09.92c.61,0,1-.27,1-.65,0-.54-.46-1.15-1.57-2.11s-1.8-1.37-2.26-1.37-.57.11-3,3.21h-5.82a13.21,13.21,0,0,1-2.07-3.9h8.61c.65,0,1-.23,1-.65s-.23-.73-.81-1.27a6.29,6.29,0,0,0-2.87-1.8c-.45,0-.61.16-1.87,1.88-.15.19-.42.54-.73,1h-7.35c.46-1.19.77-2.07,1.34-3.87h14.16c.62,0,1-.3,1-.73,0-.88-2.91-3.44-3.94-3.44-.39,0-.77.31-1.42,1.15-.76,1-1.07,1.38-1.61,2.06h-7.92c.19-.65.27-1,.46-1.83,1.11-.61,1.38-.81,1.38-1.3,0-.65-.38-.88-2.72-1.46a16.4,16.4,0,0,0-3.6-.76c-.22,0-.3.07-.3.3-.08,1.3-.23,2.53-.61,5h-9.8c-.5,0-1.53-.07-2.33-.15a.27.27,0,0,0-.31.27c0,.08,0,.15.57.92a20.68,20.68,0,0,1,2.22-.08h9.49c-.49,2.14-.8,3.45-.92,3.87h-7.07c-.46,0-1.42-.08-2.15-.16a.27.27,0,0,0-.3.27c0,.08,0,.15.57.8.54,0,1.07,0,1.61,0h7a27.81,27.81,0,0,1-1.57,3.9h-7.77c-.46,0-1.45,0-2.18-.11-.19,0-.31.11-.31.26s0,.16.58.84a12.86,12.86,0,0,1,1.64-.07h7.54c-3,5-6.2,8.34-9.79,10.29-.39.19-.5.31-.5.42s.07.16.23.16a16.66,16.66,0,0,0,3.44-1.34,26.76,26.76,0,0,0,5.74-3.71c0,1.33-.11,5.58-.15,7.27-.08,2.45-.19,5.32-.19,5.51,0,.8.46,1.11,1.72,1.11A3.82,3.82,0,0,0,257,323c.31-.35.34-.54.34-1.57h7.85v1.42c0,.68.61,1,1.76,1A7.74,7.74,0,0,0,270,323a1.66,1.66,0,0,0,.58-1.42l-.43-9.8c1.88,2,4.1,3.45,5,3.45.3,0,.53-.23.76-.61a8.17,8.17,0,0,1,3.6-3.29c.61-.27.84-.35.84-.46s-.27-.27-1.76-.81c-5.09-1.83-8.38-3.52-10.68-6.08Zm-23.23-40a53.08,53.08,0,0,0,4.06-4.17c1-.27,1.19-.39,1.19-.77,0-.65-1.54-1.41-4.52-2.26h5.32c.73,0,1.19-.23,1.19-.61,0-.84-2.42-3.17-3.22-3.17-.27,0-.46.15-.84.65s-1.23,1.68-1.57,2.22h-1.8v-2.95c.84-.5,1.15-.84,1.15-1.23s-.5-.76-1.34-1a29.76,29.76,0,0,0-4.29-.54c-.19,0-.26.08-.26.27,0,1.8,0,3.6.07,5.4h-4.09c-.42,0-1.3,0-2-.08a.27.27,0,0,0-.31.27c0,.07,0,.15.54.8a9.31,9.31,0,0,1,1.49-.08h9A55.61,55.61,0,0,1,254,264h-7.42c-.54,0-1.68-.08-2.56-.19-.2,0-.31.11-.31.26s0,.16.65,1a13,13,0,0,1,1.76-.08h4.67a.49.49,0,0,1,0,.27v3.64h-4.21c-.46,0-1.46,0-2.18-.12a.28.28,0,0,0-.31.27c0,.08,0,.15.65,1a11.4,11.4,0,0,1,1.65-.08h3.06c-1.11,4.74-3.33,9.26-5.47,11.48-.5.54-.5.57-.5.69a.15.15,0,0,0,.15.15,8.44,8.44,0,0,0,2-1.11,19.71,19.71,0,0,0,5.05-4.59c0,1.76-.23,6.43-.27,7.81v.15c0,.8.35,1,1.65,1a6.16,6.16,0,0,0,2.56-.54,1.14,1.14,0,0,0,.77-1.19c0-1.64-.15-8.64-.15-10.83A5.68,5.68,0,0,1,257,277c.08,1.45.61,2,2,2a2.65,2.65,0,0,0,2.76-2.64c0-1.53-1.08-2.64-3.26-3.37a11.62,11.62,0,0,0-3.17-.65v-2.37h6.5c.65,0,1-.19,1-.57,0-.92-2.18-2.95-3.14-2.95-.5,0-.73.27-2.37,2.52h-2v-2.71a3.74,3.74,0,0,0,.91-.5.64.64,0,0,0,.23-.5.55.55,0,0,0-.07-.23h6.16c.61,0,1-.19,1-.49,0-.92-1.95-3.07-2.75-3.07-.42,0-.58.16-1.72,1.57-.31.39-.54.65-.85,1Zm-7.88-1.95c0,1.22.61,1.79,1.87,1.79,1.61,0,2.84-.95,2.84-2.25,0-1.5-1.27-3.06-3.07-3.87a11,11,0,0,0-2.44-.8c-.16,0-.23.08-.23.15a.31.31,0,0,0,.11.23,5.1,5.1,0,0,1,.92,3.45Zm20.59,1.45v-7.08a.89.89,0,0,1,.57-.88c2.91-.11,4.21-.11,7.81-.11a7.49,7.49,0,0,0,1.11.11c.95,0,1.53-.34,1.53-.88,0-.76-1.53-2.1-4.63-4a33.55,33.55,0,0,1-6,3.37c-.46-.54-3.64-1.57-4.9-1.57-.23,0-.31.08-.31.27s0,.46,0,1.11c.16,1.87.35,10,.35,15.5,0,5.05-.39,7.19-1.76,9.6-1.27,2.18-2.68,3.41-6,5.17-.15.08-.19.15-.19.27s.07.19.23.19a14.89,14.89,0,0,0,2.71-.92,16.31,16.31,0,0,0,6.62-4.86c2.11-2.79,2.8-5.74,2.8-11.71v-2.68h2.29c0,1.61,0,2.45,0,3.29,0,1.53-.11,11.67-.19,14.16,0,1.23,0,1.91,0,2.41,0,.92.42,1.23,1.72,1.23a7.33,7.33,0,0,0,2.15-.31c1-.34,1.45-.77,1.45-1.42,0-.91,0-1.95-.08-3.06-.15-3.14-.15-4.9-.22-14.62a.55.55,0,0,1,.3-.49c.54-.27.61-.31.61-.54s-.19-.38-1.11-.65h3.83c.65,0,1-.27,1-.69s-.53-1.26-1.79-2.6c-1-1-1.5-1.42-2-1.42s-1,.46-2.87,3.83Z" transform="translate(-218.27 -100.63)"/><path class="cls-1" d="M311.29,447q.57-.24.57-.57c0-.21-.43-.54-1-.78h2.46a17.29,17.29,0,0,0,3.5,7.7c-1.65.11-3.48.19-5.5.22Zm5.71,3a10.83,10.83,0,0,1-3.15-4.31h13.84c.3,0,.54-.19.54-.4,0-.38-.35-.87-1.08-1.54s-1.45-1.16-1.8-1.16-.65.3-2.34,2.43H311.43v-2.75H323c.43,0,.65-.11.65-.38s-.27-.72-.95-1.32-1.26-1-1.53-1-.57.19-.94.67c-.6.73-.76.92-1.19,1.4h-7.59v-2.9h11.42c.51,0,.72-.11.72-.38s-.29-.7-1-1.29-1.35-1-1.62-1-.57.19-.94.65L318.89,438h-7.46v-1.32c0-.43,0-.65,0-1.19a.46.46,0,0,1,.27-.4h13.2c.59,0,.78-.11.81-.54s-2.21-2.23-2.83-2.23c-.4,0-.51.1-2.07,2.12h-8.68c-.1-.35-.21-.45-.67-.67A11.86,11.86,0,0,0,308,433c-.19,0-.25.06-.25.22s0,1.32,0,2.23c0,1.51,0,2.72,0,4.5v5H305c-.33,0-1-.06-1.54-.11a.19.19,0,0,0-.21.19c0,.05,0,.11.54.67.62-.05,1.26-.08,1.88-.08h2.05c0,.24.05.73.05,1.1v6.76l-3.58,0c-.16,0-.24.05-.24.13s.16.49.21.67c.16.57.51,1.75.68,2.21s.37,1,.86,1a4.6,4.6,0,0,0,1.56-.37,47.1,47.1,0,0,0,9.78-3.45,14.8,14.8,0,0,0,3.36,2.64,11.13,11.13,0,0,0,4,1.32c.35,0,.46,0,.7-.41a7.19,7.19,0,0,1,1.16-1.48,8.38,8.38,0,0,1,2-1.61c.22-.11.25-.14.25-.19s-.14-.19-1.65-.43a23.56,23.56,0,0,1-9.12-3.07,48.65,48.65,0,0,0,5-1.35c.67-.13,1.26-.48,1.26-.86s-.43-.76-1.67-1.4c-.83-.43-1.18-.62-1.32-.68a2.14,2.14,0,0,0-.7-.24c-.05,0-.1,0-.18.19a32.83,32.83,0,0,1-2.91,3.66Zm12-36.25c0-.08-.09-.13-.25-.16-6.54-1.16-10.23-3-12-5.92.49-.19.7-.38.7-.7s-.4-.7-1.32-.92c-2.12-.51-2.26-.56-3.66-.81-1.67,5.2-5.6,10.48-9.34,12.47-.38.19-.43.22-.43.32a.12.12,0,0,0,.13.14,17.71,17.71,0,0,0,3.88-1.4,23.49,23.49,0,0,0,9.61-8.86,11.54,11.54,0,0,0,4.58,7.32,10.82,10.82,0,0,0,5,2.24.43.43,0,0,0,.46-.32,7,7,0,0,1,2.42-3.16c.16-.1.22-.16.22-.24m-18,1.51a12,12,0,0,1-1.21-.08.19.19,0,0,0-.21.19s0,.11.48.64a16.68,16.68,0,0,1,2-.1h7.52c.48,0,.72-.14.72-.41,0-.56-1.83-2.18-2.47-2.18-.3,0-.62.41-1.57,1.94Zm-5.33,4.61c-.38,0-1.16,0-1.75-.09a.2.2,0,0,0-.21.19c0,.06,0,.11.51.7a19.14,19.14,0,0,1,2.39-.13h4.55a41.78,41.78,0,0,1-1.34,6.08c-1.59,0-2.86-.05-4-.1-.19,0-.81-.06-.94-.06s-.14,0-.14.08a.9.9,0,0,0,.06.25c.35,1.24.59,2,1,3.28a.84.84,0,0,0,.83.57,4.61,4.61,0,0,0,1.57-.35,57.72,57.72,0,0,0,8.4-1.83c.54-.17,1.88-.68,3.93-1.46.3.59.51,1.05.65,1.4.72,1.91,1.07,2.26,2.18,2.26a2.27,2.27,0,0,0,2.34-2.45,3.5,3.5,0,0,0-.7-2.12,9.8,9.8,0,0,0-5-2.83,22.78,22.78,0,0,0-2.74-.65c-.11,0-.16.06-.16.14s0,.1.18.24A15.88,15.88,0,0,1,320.1,426c-2.24.22-4.58.38-8,.51,1.7-2.37,2.18-3.09,3.26-4.76.73-.16.94-.32.94-.68s-.18-.4-.7-.64h10.91c.51,0,.81-.22.81-.54s-.41-.86-1.05-1.32a6.19,6.19,0,0,0-2.1-1.13c-.38,0-1,.65-2.24,2.32Zm4.94-34.93c1-.55,1.18-.68,1.18-1.05,0-.63-.5-.95-2.59-1.49-1.13-.28-3.4-.77-3.67-.77-.5,0-.54,0-.54.49v2.45c0,.77-.05,3.86-.05,5.08v5.35c0,3.81,1.41,4.22,13.47,4.22,3.76,0,5.67-.22,7.12-.86a3.69,3.69,0,0,0,2.36-3.45,1.92,1.92,0,0,0-.73-1.63c-1.31-.95-1.49-1.27-1.49-2.63,0-.41,0-.91,0-1.54.18-2.54.18-2.63.18-2.72s-.09-.32-.22-.32-.18.05-.41.63a15.24,15.24,0,0,1-3,5.13c-1.22,1.13-3.31,1.63-6.94,1.63-2.22,0-3.67-.13-4.22-.45-.36-.18-.5-.55-.5-1.36Zm9.71,1.86c0-1.64-1.37-3.27-3.36-4.13a22.94,22.94,0,0,0-5.4-1.45c-.23,0-.36.09-.36.22s.09.28.41.46a6.2,6.2,0,0,1,2.49,5,3.9,3.9,0,0,0,.27,1.86,2.53,2.53,0,0,0,2.27,1c2.13,0,3.68-1.23,3.68-3m-20.91-2.32a7.61,7.61,0,0,1-2.63,5.72c-1.86,1.54-2,1.81-2,2.9a3,3,0,0,0,3.22,2.9c2.81,0,4.62-2,4.62-5.08a11.87,11.87,0,0,0-1.9-5.94c-.59-.95-.82-1.18-1.05-1.18s-.22.14-.22.32Zm37.14,6.9c0-2.54-1.72-4.95-4.58-6.44a17.15,17.15,0,0,0-5.71-1.77c-.18,0-.37.09-.37.27s.14.27.59.54c1.68,1.05,2.77,3.36,3.36,7.12.45,3,1.18,3.86,3.27,3.86s3.44-1.32,3.44-3.58m-23.76-25.72v8.57h-6.17V369c0-1.09,0-1.23,0-2.36a2.22,2.22,0,0,1,.09-.59.74.74,0,0,1,.73-.5Zm12,8.57h-6.17v-8.57h4.85c.91,0,1.09.09,1.18.41a11.56,11.56,0,0,1,.09,2.45Zm-6.12-9.61V361c1-.54,1.36-.86,1.36-1.31s-.46-.82-1.41-1-4.9-.73-5.53-.73c-.27,0-.36.05-.36.36,0,.82,0,1.82,0,2.72v3.59H307.5c-.32-.64-1.18-1.09-2.86-1.54a22,22,0,0,0-3.31-.69c-.32,0-.32.14-.32,1.18v.87c0,2.45-.13,7.75-.22,10.38-.05,1.18-.05,1.45-.05,1.63,0,1,.55,1.32,1.95,1.32a7.22,7.22,0,0,0,3.22-.63c.59-.32.68-.64.73-1.86h6.12l0,2.35c-.05,1.23-.05,1.82-.05,2.14,0,1.17.45,1.49,2.13,1.49,2.72,0,3.9-.68,3.9-2.36,0-.27,0-.77,0-1.9V375.2h6.07v.72c0,1.27.46,1.68,1.91,1.68a8.23,8.23,0,0,0,4.08-1,1.55,1.55,0,0,0,.59-1.41c0-.72,0-1.72-.14-3.31-.09-2-.18-3.81-.18-5,1.23-.86,1.27-.91,1.27-1.31,0-.55-.5-1.05-2-1.95-1.77-1.14-2.9-1.68-3.49-1.68s-1,.41-2.32,2.54ZM313,318.73c0,3.58-.09,7.57-.09,8.57v.77c0,1.18.46,1.45,2.41,1.45,2.67,0,4.12-1,4.08-2.76l-.27-20.91v-4.63c1.36-.86,1.58-1.08,1.58-1.63s-.31-.82-.95-1-1.59-.36-3-.59c-.77-.14-3.4-.5-3.67-.5s-.27.09-.27.23c0,.5,0,2.26.09,3.44.09,2.41.09,5.17.09,8.21Zm12.79-21.63c0,2.54.18,11.74.18,13.65,0,5.44,0,8.66,0,10.75,0,4,0,7.07,0,8.93-.09,3-.09,3.18-.09,4.08s.05,1.18.28,1.41a4,4,0,0,0,2.31.54,6.43,6.43,0,0,0,3.54-1,2,2,0,0,0,.86-2l-.05-1.46c0-1.36-.13-3.67-.18-6.89,0-2.22-.09-5.76-.18-9.7,0-3.5,0-4.54,0-7.81v-7.93c1.41-.77,1.73-1.05,1.73-1.59,0-.82-.64-1.18-2.81-1.72a27.55,27.55,0,0,0-4.95-.77c-.5,0-.5.13-.5.58Zm-19.68,2.13c1.22-.77,1.31-.86,1.31-1.36s-.4-.91-1.63-1.27a44,44,0,0,0-5.53-1c-.32,0-.46.09-.46.31.14,5,.32,18.73.32,21.68,0,5.67-.77,9.35-2.63,12.66a15.77,15.77,0,0,1-3.17,4c-.37.31-.46.45-.46.59s.14.27.32.27c.41,0,1.59-.73,3.27-1.95a25,25,0,0,0,6.21-6.71c2.13-3.9,2.63-6.9,2.54-17.47ZM303.78,275c-.5,0-1.54-.05-2.36-.14a.33.33,0,0,0-.36.32c0,.09,0,.18.82,1.13,1.31-.09,2.72-.13,4-.13h11.43a134.17,134.17,0,0,1-2,13.56,7.2,7.2,0,0,0-.23,1.45c0,.82,1,1.45,2.4,1.45a7.54,7.54,0,0,0,4.49-1.36c.5-.45.59-1,.73-2.77.68-7.84.82-8.66,1-10.7a10.74,10.74,0,0,1,1.13-.73.82.82,0,0,0,.36-.63c0-.54-.45-1-2-2.13s-2.58-1.68-3.13-1.68-1.27.64-2.72,2.36Zm3.18-6.26a17.9,17.9,0,0,1-1.95-.14.33.33,0,0,0-.37.32c0,.09.05.18.73,1.09a27,27,0,0,1,3.35-.18h13.61c.68,0,1.09-.27,1.09-.73s-.91-1.54-2.45-2.63a5.37,5.37,0,0,0-1.86-1c-.54,0-1,.59-2.63,3.27Zm30.84-1c0-.14-.09-.23-.46-.32-9.48-2.9-16.82-8-19.27-13.47,1.36-.45,1.63-.64,1.63-1.18a1.26,1.26,0,0,0-.82-1.09,35.32,35.32,0,0,0-7.34-2c-2.59,6.85-5,11.29-8.62,15.56a29.11,29.11,0,0,1-8.53,6.94c-.32.13-.41.22-.41.36s.09.18.28.18c1.22,0,6.44-2,9.07-3.54,6.12-3.49,9.34-6.89,14.28-15,1.09,6.44,2.73,10.2,6.13,14,2.45,2.73,6,5,7.66,5,.59,0,.86-.18,1.18-.82a9.79,9.79,0,0,1,4.31-4c.73-.37.91-.46.91-.59" transform="translate(-218.27 -100.63)"/><rect class="cls-2" width="141.73" height="51.02"/><path class="cls-3" d="M330.33,240.63a5.65,5.65,0,0,0,0-7.39h-.85a5.83,5.83,0,0,1,0,7.39Zm-3-3.42h-3.58v-1h3.58Zm0-1.85h-3.58v-.87h3.58Zm1-1.81h-5.58v3.24a4.65,4.65,0,0,1-.91,3.12l.88.71a4.88,4.88,0,0,0,1-2.5h3.64v1.21a.22.22,0,0,1-.25.25H325.8l.15,1h1.66a.7.7,0,0,0,.73-.77Zm-6.87,7.08a5.8,5.8,0,0,1,0-7.39h-.87a5.67,5.67,0,0,0,0,7.39Zm-5.47-.85h-4.09v-2H316Zm-4.09-4.88H316v1.92h-4.09Zm-1,5.84H317V234h-6.14Zm-1.6-6.71h-3.57v3.51h.93a1.17,1.17,0,0,1,.84-.31,1.06,1.06,0,0,1,1.17,1.05c0,.34-.18,1.09-1.4,1.09a3,3,0,0,1-1.64-.48l-.28,1a4.07,4.07,0,0,0,1.93.48c1.81,0,2.49-1.12,2.49-2.11a2,2,0,0,0-2.19-2,2.36,2.36,0,0,0-.81.13V235h2.53Zm-7,5.22c1.66-1.8,2.11-2.49,2.11-3.43a1.88,1.88,0,0,0-2-1.91,2.53,2.53,0,0,0-2,1l.48,1.07a1.84,1.84,0,0,1,1.52-1.08.89.89,0,0,1,.93.94c0,.43-.16.85-1.1,2-.79.95-1.54,1.72-2.23,2.42h4.7v-1Zm-4.46-1.69h-3.58v-.95h3.58Zm0-1.84h-3.58v-.87h3.58Zm1-1.81h-5.59v3.24a4.63,4.63,0,0,1-.9,3.11l.88.72a4.88,4.88,0,0,0,1-2.51h3.64v1.21a.22.22,0,0,1-.25.25h-1.3l.16,1h1.66a.69.69,0,0,0,.73-.77ZM287.93,235l.14,1,1.13-.78v5h1.11V234h-1Zm-5.14,0,.14,1,1.13-.78v5h1.11V234h-1Z" transform="translate(-218.27 -100.63)"/><path class="cls-3" d="M346.23,231.42a6,6,0,0,0,1.37-3.7,5.91,5.91,0,0,0-1.38-3.69h-.86a5.9,5.9,0,0,1,1.33,3.69,6,6,0,0,1-1.33,3.7Zm-5-2.66h-1.57v-1.25h1.57Zm0-3.08v.92h-2.42a7,7,0,0,0,.69-.92Zm-1.24-.94c.1-.24.14-.35.21-.56l-1-.19a4.6,4.6,0,0,1-1.67,2.41l.65.84c.19-.16.31-.27.54-.5v2h-1.09v.93h3.64v1.7h1v-1.7H345v-.93h-2.72v-1.25h2.18v-.91h-2.18v-.92h2.43v-.94Zm-10.18,2.75h2c0,1.3-.1,2.35-2.05,3l.46,1c2.23-.75,2.57-2.33,2.56-3.91H334v3.1c0,.52.23.7.76.7h1.55c.52,0,.85-.16,1-1.86l-.93-.23c-.07,1.06-.09,1.16-.39,1.16h-.71c-.17,0-.26-.07-.26-.31v-2.56h2.21v-.94h-7.32Zm.5-2.28h6.32v-.93h-6.32Zm-2.15,5h-1.58v-4.77h1.58Zm1-5.69h-3.47v6.63h3.47Zm-4.81.57a8,8,0,0,0,1.09-.2l-.33-.86a15.68,15.68,0,0,1-3.06.36l.16.88c.58,0,.84,0,1.22-.08v.86H322V227h1.27a6.56,6.56,0,0,1-1.4,1.95l.34,1.21a6.65,6.65,0,0,0,1.19-1.7v3h.92v-3.18a4.47,4.47,0,0,0,.77,1.09l.44-1a4.66,4.66,0,0,1-1.19-1.39h1.11v-.88h-1.13Zm-9.82,3.51h2.09v2.77h1v-2.77h2.42v1.13c0,.08,0,.22-.22.22h-1.37l.19.93h1.52c.87,0,.87-.48.87-.8v-2.4h-6.51Zm1.92-2.44a7,7,0,0,0,1.47-1.38,7.67,7.67,0,0,0,1.48,1.38Zm-.39.88h3.72v-.61a7.91,7.91,0,0,0,1.49.8l.48-1A6.82,6.82,0,0,1,318.5,224h-1.06a7.12,7.12,0,0,1-3.28,2.24l.44,1a8.18,8.18,0,0,0,1.46-.77Zm-2.18,4.35a6,6,0,0,1-1.32-3.7,5.89,5.89,0,0,1,1.32-3.69H313a5.67,5.67,0,0,0,0,7.39Zm-7.59-2.31h-1.57v-1.24h1.57Zm0-3.08V227h-2.42a6.53,6.53,0,0,0,.68-.92ZM305,225.1c.1-.24.14-.36.21-.56l-1-.2a4.65,4.65,0,0,1-1.67,2.41l.65.84a4.68,4.68,0,0,0,.53-.5v2h-1.08v.94h3.64v1.7h1v-1.7H310v-.94h-2.72v-1.24h2.19V227h-2.19V226h2.44v-.93Zm-6.36,1.74a1.11,1.11,0,0,1,1.13-1.14,1.12,1.12,0,1,1,0,2.24,1.06,1.06,0,0,1-1.11-1.1m-.45,4.17a2.92,2.92,0,0,0,.94.15c1.91,0,2.94-1.54,2.94-3.6,0-2.6-1.69-2.87-2.32-2.87a2.14,2.14,0,0,0-2.21,2.18,2,2,0,0,0,2,2,1.86,1.86,0,0,0,1.33-.53c-.24,1.55-1.17,1.79-1.81,1.79a2.29,2.29,0,0,1-.9-.18Zm-5.15-5.24.14,1,1.13-.79v5h1.11v-6.22h-1Zm-3.52,4.39c-.82,0-1.13-.88-1.13-2.23s.25-2.23,1.13-2.23,1.13.89,1.13,2.23-.27,2.23-1.13,2.23m0,1c2.23,0,2.23-2.65,2.23-3.23s0-3.24-2.23-3.24a2,2,0,0,0-1.7.91,4.17,4.17,0,0,0-.53,2.33c0,.57,0,3.23,2.23,3.23M284.33,230c1.65-1.79,2.11-2.48,2.11-3.43a1.88,1.88,0,0,0-2-1.91,2.54,2.54,0,0,0-2,1l.47,1.06a1.89,1.89,0,0,1,1.52-1.07.89.89,0,0,1,.94.93c0,.44-.16.85-1.11,2-.78,1-1.53,1.73-2.22,2.43h4.69v-1Zm-5.2,1h1.23V229.8h-1.23Zm0-3.4h1.23V226.4h-1.23Zm-4.26,2.92h-4.09v-2h4.09Zm-4.09-4.87h4.09v1.92h-4.09Zm-1,5.84h6.15v-6.8h-6.15ZM262,228.58h6.58v-1H262ZM255.77,230v.92h5.46V230h-1.4l.51-3.38H256.4v.92h2.85l-.38,2.46Zm-2.72-5.11a6.06,6.06,0,0,1,.81,1.48l.55-.35a6.22,6.22,0,0,0-.85-1.44Zm1-.42a6.32,6.32,0,0,1,.8,1.47l.55-.34a6.42,6.42,0,0,0-.84-1.45Zm-4.25.31h-1.06v4.74c0,1.64,1.09,1.64,3.46,1.64,1.07,0,1.73,0,2.21,0v-1.05c-.79.05-1.57.09-2.36.09-2.13,0-2.25-.06-2.25-.79v-1.2a17.12,17.12,0,0,0,3.86-1.29l-.5-.91a15.67,15.67,0,0,1-3.36,1.19Zm-3.71,1.31a6,6,0,0,1-.75,2,17.83,17.83,0,0,0-2.11-1.26,8.17,8.17,0,0,0,.49-.72Zm-3.53,5.42a7.06,7.06,0,0,0,4.81-6.41h-4.29a7.58,7.58,0,0,1-2.07,2.51l.79.71c.18-.17.5-.43.8-.76a18.84,18.84,0,0,1,2.13,1.34,6.08,6.08,0,0,1-2.86,1.75Zm-2.7-5.23a7.73,7.73,0,0,1-5.56,4l.36,1.08a8.89,8.89,0,0,0,5.89-4.14Zm-2.7,0a10.49,10.49,0,0,0-2.42-1.14l-.49.91a9.68,9.68,0,0,1,2.34,1.18Zm-6.14.88a16.22,16.22,0,0,0,2.32-1.81l-.83-.68a14.85,14.85,0,0,1-5.65,3.24l.54,1a15.4,15.4,0,0,0,2.53-1.08v3.71h1.09Z" transform="translate(-218.27 -100.63)"/><rect class="cls-4" y="62.96" width="141.73" height="52.09"/><text class="cls-5" transform="translate(5.52 115.07)">I<tspan class="cls-6" x="13.27" y="0">NT</tspan><tspan class="cls-7" x="45.41" y="0">E</tspan><tspan class="cls-8" x="60.26" y="0">R</tspan><tspan class="cls-9" x="76.39" y="0">V</tspan><tspan class="cls-10" x="93.29" y="0">I</tspan><tspan class="cls-11" x="106.56" y="0">E</tspan><tspan class="cls-12" x="121.55" y="0">W</tspan></text><line class="cls-13" y1="105.12" x2="141.73" y2="105.12"/><text class="cls-14" transform="translate(3.15 98.26)">O</text><text class="cls-15" transform="translate(34.08 98.26)"><tspan class="cls-16">B</tspan><tspan class="cls-17" x="23.61" y="0">A</tspan><tspan class="cls-18" x="51.42" y="0">M</tspan><tspan x="90.05" y="0">J</tspan></text></svg>