<?xml version="1.0" encoding="utf-8"?>
<!-- Generator: Adobe Illustrator 25.4.1, SVG Export Plug-In . SVG Version: 6.00 Build 0)  -->
<svg version="1.1" id="レイヤー_1" xmlns="http://www.w3.org/2000/svg" xmlns:xlink="http://www.w3.org/1999/xlink" x="0px"
	 y="0px" viewBox="0 0 133.2 14.2" style="enable-background:new 0 0 133.2 14.2;" xml:space="preserve">
<style type="text/css">
	.st0{clip-path:url(#SVGID_00000172405691714712938100000017934816258295389117_);}
</style>
<g>
	<defs>
		<rect id="SVGID_1_" width="133.5" height="13.8"/>
	</defs>
	<clipPath id="SVGID_00000153688381765544878030000006178330088545497773_">
		<use xlink:href="#SVGID_1_"  style="overflow:visible;"/>
	</clipPath>
	<path style="clip-path:url(#SVGID_00000153688381765544878030000006178330088545497773_);" d="M123.7,0.3h9.8v0.4h-4.7v12.8h-0.4
		V0.7h-4.7V0.3z M119,6.9c0.5,0,1-0.1,1.4-0.2c0.4-0.1,0.8-0.3,1.2-0.6c0.3-0.3,0.6-0.6,0.8-1c0.2-0.4,0.3-0.9,0.3-1.5
		c0-0.9-0.3-1.7-0.8-2.2c-0.6-0.5-1.5-0.8-2.7-0.8h-5.1v6.2H119z M113.7,13.5V0.3h5.4c1.4,0,2.4,0.3,3,0.8c0.6,0.5,1,1.4,1,2.6
		c0,0.9-0.2,1.6-0.7,2.2c-0.5,0.6-1.2,1-2.1,1.2v0c0.6,0.1,1,0.2,1.3,0.4c0.3,0.2,0.6,0.4,0.8,0.7c0.2,0.3,0.3,0.7,0.4,1.1
		c0.1,0.4,0.1,0.9,0.1,1.4c0,0.2,0,0.4,0,0.7c0,0.3,0,0.6,0.1,0.8c0,0.3,0.1,0.5,0.1,0.7c0,0.2,0.1,0.4,0.1,0.5h-0.4
		c-0.1-0.1-0.1-0.3-0.1-0.5c0-0.2-0.1-0.5-0.1-0.7c0-0.3,0-0.5,0-0.8c0-0.3,0-0.5,0-0.7c0-0.5,0-1-0.1-1.4c-0.1-0.4-0.2-0.8-0.5-1.1
		c-0.2-0.3-0.6-0.5-1-0.7c-0.5-0.2-1.1-0.2-1.8-0.2h-5v6.2H113.7z M100.8,4.3c0.3-0.8,0.6-1.5,1.1-2.1c0.5-0.6,1.1-1,1.8-1.4
		c0.7-0.3,1.5-0.5,2.4-0.5c0.9,0,1.7,0.2,2.4,0.5c0.7,0.3,1.3,0.8,1.8,1.4c0.5,0.6,0.9,1.3,1.1,2.1c0.3,0.8,0.4,1.7,0.4,2.6
		c0,0.9-0.2,1.8-0.4,2.6c-0.3,0.8-0.6,1.5-1.1,2.1c-0.5,0.6-1.1,1-1.8,1.4c-0.7,0.3-1.5,0.5-2.4,0.5c-0.9,0-1.7-0.2-2.4-0.5
		c-0.7-0.3-1.3-0.8-1.8-1.4c-0.5-0.6-0.9-1.3-1.1-2.1c-0.3-0.8-0.4-1.7-0.4-2.6C100.4,5.9,100.5,5.1,100.8,4.3 M100.4,9.5
		c0.3,0.8,0.7,1.6,1.2,2.2c0.5,0.6,1.1,1.1,1.9,1.5c0.8,0.4,1.6,0.5,2.6,0.5c1,0,1.9-0.2,2.6-0.5c0.8-0.4,1.4-0.9,1.9-1.5
		c0.5-0.6,0.9-1.4,1.2-2.2s0.4-1.7,0.4-2.7c0-0.9-0.1-1.8-0.4-2.7c-0.3-0.8-0.7-1.6-1.2-2.2c-0.5-0.6-1.1-1.1-1.9-1.5
		c-0.8-0.4-1.6-0.6-2.6-0.6c-1,0-1.9,0.2-2.6,0.6c-0.8,0.4-1.4,0.9-1.9,1.5c-0.5,0.6-0.9,1.4-1.2,2.2C100.1,5.1,100,6,100,6.9
		C100,7.8,100.1,8.7,100.4,9.5 M95.2,7.1c0.5,0,1-0.1,1.4-0.2s0.8-0.4,1.2-0.6c0.3-0.3,0.6-0.6,0.8-1c0.2-0.4,0.3-0.8,0.3-1.4
		c0-1-0.3-1.8-0.9-2.4c-0.6-0.6-1.5-0.8-2.7-0.8h-5v6.4H95.2z M89.8,13.5V0.3h5.3c1.3,0,2.2,0.3,2.9,0.9c0.7,0.6,1,1.5,1,2.7
		c0,0.6-0.1,1.1-0.3,1.5c-0.2,0.4-0.5,0.8-0.9,1.1c-0.4,0.3-0.8,0.5-1.3,0.7c-0.5,0.2-1.1,0.2-1.7,0.2h-4.8v6H89.8z M88.8,13.1v0.4
		h-8.8V0.3h8.7v0.4h-8.4v5.7h7.9v0.4h-7.9v6.3H88.8z M74,6.9c0.5,0,1-0.1,1.4-0.2c0.4-0.1,0.8-0.3,1.2-0.6c0.3-0.3,0.6-0.6,0.8-1
		c0.2-0.4,0.3-0.9,0.3-1.5c0-0.9-0.3-1.7-0.8-2.2c-0.6-0.5-1.5-0.8-2.7-0.8h-5.1v6.2H74z M68.7,13.5V0.3h5.4c1.4,0,2.4,0.3,3,0.8
		c0.6,0.5,1,1.4,1,2.6c0,0.9-0.2,1.6-0.7,2.2c-0.5,0.6-1.2,1-2.1,1.2v0c0.6,0.1,1,0.2,1.3,0.4c0.3,0.2,0.6,0.4,0.8,0.7
		c0.2,0.3,0.3,0.7,0.4,1.1c0.1,0.4,0.1,0.9,0.1,1.4c0,0.2,0,0.4,0,0.7c0,0.3,0,0.6,0.1,0.8c0,0.3,0.1,0.5,0.1,0.7
		c0,0.2,0.1,0.4,0.1,0.5h-0.4c-0.1-0.1-0.1-0.3-0.1-0.5c0-0.2-0.1-0.5-0.1-0.7c0-0.3,0-0.5,0-0.8c0-0.3,0-0.5,0-0.7
		c0-0.5,0-1-0.1-1.4c-0.1-0.4-0.2-0.8-0.5-1.1c-0.2-0.3-0.6-0.5-1.1-0.7c-0.5-0.2-1.1-0.2-1.8-0.2h-5v6.2H68.7z M61.5,0.3V10
		c0,0.6-0.1,1.1-0.2,1.5c-0.1,0.5-0.3,0.8-0.6,1.2c-0.3,0.3-0.7,0.6-1.1,0.8c-0.5,0.2-1,0.3-1.7,0.3c-0.6,0-1.2-0.1-1.6-0.3
		s-0.8-0.4-1.1-0.7c-0.3-0.3-0.5-0.7-0.6-1.1s-0.2-0.9-0.2-1.4V9.4h0.4v0.8c0,1.1,0.3,1.9,0.8,2.4c0.5,0.5,1.3,0.8,2.3,0.8
		c0.5,0,1-0.1,1.4-0.2s0.7-0.3,1-0.6c0.3-0.3,0.5-0.7,0.6-1.1c0.1-0.5,0.2-1,0.2-1.7V0.3H61.5z M53,0.3v13.2h-0.4V0.8h0l-5.6,12.7
		h-0.4L41.1,0.8h0v12.7h-0.4V0.3h0.6L46.8,13h0l5.6-12.7H53z M29.3,0.7L29.3,0.7l-3.3,8.1h6.4L29.3,0.7z M24.2,13.5h-0.4l5.3-13.2
		h0.5l5.2,13.2h-0.4l-1.7-4.3h-6.7L24.2,13.5z M19.2,13.1c0.5,0,1-0.1,1.5-0.2c0.5-0.1,0.9-0.3,1.2-0.6c0.3-0.3,0.6-0.6,0.8-1
		c0.2-0.4,0.3-0.9,0.3-1.4c0-0.6-0.1-1.1-0.3-1.5c-0.2-0.4-0.5-0.7-0.8-1C21.4,7.3,21,7.1,20.6,7c-0.4-0.1-0.9-0.2-1.4-0.2h-5.3v6.3
		H19.2z M19.2,0.3c0.5,0,1,0.1,1.4,0.2c0.4,0.1,0.8,0.3,1.2,0.6c0.3,0.3,0.6,0.6,0.8,1c0.2,0.4,0.3,0.9,0.3,1.4
		c0,0.4-0.1,0.8-0.2,1.1c-0.1,0.4-0.3,0.7-0.6,0.9c-0.2,0.3-0.5,0.5-0.9,0.7c-0.3,0.2-0.7,0.3-1.1,0.3v0c0.4,0,0.8,0.1,1.2,0.2
		c0.4,0.2,0.7,0.4,1,0.6c0.3,0.3,0.5,0.6,0.7,1c0.2,0.4,0.3,0.9,0.3,1.4c0,0.6-0.1,1.1-0.3,1.6c-0.2,0.4-0.5,0.8-0.9,1.1
		c-0.4,0.3-0.8,0.5-1.4,0.7c-0.5,0.2-1.1,0.2-1.7,0.2h-5.4V0.3H19.2z M19.2,6.4c0.4,0,0.9-0.1,1.3-0.2c0.4-0.1,0.8-0.3,1.1-0.5
		c0.3-0.2,0.6-0.5,0.7-0.9c0.2-0.4,0.3-0.8,0.3-1.2c0-0.5-0.1-0.9-0.3-1.3c-0.2-0.4-0.4-0.7-0.7-0.9c-0.3-0.2-0.7-0.4-1.1-0.5
		c-0.4-0.1-0.8-0.2-1.3-0.2h-5.3v5.7H19.2z M0.8,4.3C1,3.5,1.4,2.8,1.9,2.2c0.5-0.6,1.1-1,1.8-1.4c0.7-0.3,1.5-0.5,2.4-0.5
		c0.9,0,1.7,0.2,2.4,0.5c0.7,0.3,1.3,0.8,1.8,1.4c0.5,0.6,0.9,1.3,1.1,2.1c0.3,0.8,0.4,1.7,0.4,2.6c0,0.9-0.2,1.8-0.4,2.6
		c-0.3,0.8-0.6,1.5-1.1,2.1c-0.5,0.6-1.1,1-1.8,1.4c-0.7,0.3-1.5,0.5-2.4,0.5c-0.9,0-1.7-0.2-2.4-0.5c-0.7-0.3-1.3-0.8-1.8-1.4
		C1.4,11,1,10.3,0.8,9.5C0.5,8.7,0.4,7.8,0.4,6.9C0.4,5.9,0.5,5.1,0.8,4.3 M0.4,9.5c0.3,0.8,0.7,1.6,1.2,2.2
		c0.5,0.6,1.1,1.1,1.9,1.5c0.8,0.4,1.6,0.5,2.6,0.5c1,0,1.9-0.2,2.6-0.5c0.8-0.4,1.4-0.9,1.9-1.5c0.5-0.6,0.9-1.4,1.2-2.2
		c0.3-0.8,0.4-1.7,0.4-2.7c0-0.9-0.1-1.8-0.4-2.7c-0.3-0.8-0.7-1.6-1.2-2.2c-0.5-0.6-1.1-1.1-1.9-1.5C7.9,0.2,7,0,6.1,0
		c-1,0-1.9,0.2-2.6,0.6C2.7,0.9,2.1,1.4,1.6,2C1,2.7,0.7,3.4,0.4,4.2C0.1,5.1,0,6,0,6.9C0,7.8,0.1,8.7,0.4,9.5"/>
</g>
</svg>
