<svg id="レイヤー_1" data-name="レイヤー 1" xmlns="http://www.w3.org/2000/svg" viewBox="0 0 94.96 9.92"><defs><style>.cls-1{fill:#231815;}</style></defs><path class="cls-1" d="M92.89,0h.18V9.2h-.18ZM87.76,6.46c0,.6,0,.73-.34.76l-.32,0s0,.17,0,.2c.3,0,.65,0,.93,0s.63,0,.93,0c.06,0,.06-.15,0-.2l-.33,0c-.32,0-.34-.16-.34-.76v-3c0-.45,0-.84,0-1a.08.08,0,0,0-.07,0A3.38,3.38,0,0,1,87,2.87a.11.11,0,0,0,0,.18l.37,0c.35,0,.38.2.38.73ZM85.69,7.52a.41.41,0,0,0,.44-.43.44.44,0,1,0-.87,0,.42.42,0,0,0,.43.43M83.08,2.66c.86,0,.92,1.58.92,2.31s-.06,2.32-.92,2.32S82.16,5.7,82.16,5s.06-2.31.92-2.31m0-.24c-1.14,0-1.61,1.37-1.61,2.55s.47,2.55,1.61,2.55S84.69,6.2,84.69,5s-.47-2.55-1.61-2.55m-4,4.51c-.2,0-.24,0-.24-.07s.07-.17.71-.91l.47-.54a2.68,2.68,0,0,0,.84-1.72,1.21,1.21,0,0,0-1.29-1.27A1.64,1.64,0,0,0,78,3.52a.13.13,0,0,0,.19.1,1.15,1.15,0,0,1,1-.78c.63,0,1,.43,1,1.14a3.41,3.41,0,0,1-1.11,2.14,6.57,6.57,0,0,1-1.2,1.13s-.08.06-.08.08,0,.1,0,.1c.17,0,.43,0,.87,0h1.13l1,0a3.25,3.25,0,0,0,.36-.95.15.15,0,0,0-.17,0,1.27,1.27,0,0,1-.25.32,1.12,1.12,0,0,1-.73.17ZM75.91,2.66c.86,0,.92,1.58.92,2.31s-.06,2.32-.92,2.32S75,5.7,75,5s.06-2.31.92-2.31m0-.24C74.77,2.42,74.3,3.79,74.3,5s.47,2.55,1.61,2.55S77.52,6.2,77.52,5s-.47-2.55-1.61-2.55M71.72,6.93c-.21,0-.25,0-.25-.07s.07-.17.71-.91l.48-.54a2.66,2.66,0,0,0,.83-1.72,1.2,1.2,0,0,0-1.28-1.27,1.63,1.63,0,0,0-1.57,1.1.13.13,0,0,0,.19.1,1.13,1.13,0,0,1,1-.78c.63,0,1,.43,1,1.14A3.41,3.41,0,0,1,71.7,6.12a6.6,6.6,0,0,1-1.19,1.13c-.05,0-.09.06-.09.08s0,.1.06.1.42,0,.86,0h1.13l1,0a3.62,3.62,0,0,0,.35-.95.15.15,0,0,0-.17,0,1.07,1.07,0,0,1-.25.32,1.12,1.12,0,0,1-.73.17ZM67.61,2.85c0-.34,0-.73,0-1a.09.09,0,0,0-.08,0,6,6,0,0,1-.84.33.11.11,0,0,0,0,.15l.08.05c.23.14.24.19.24.64V6.54c0,.56,0,.64-.3.68l-.18,0a.15.15,0,0,0,0,.2c.23,0,.47,0,.75,0s.5,0,.75,0a.14.14,0,0,0,0-.2l-.19,0c-.28,0-.29-.12-.29-.68ZM64.07,6.7c0-.3.22-.42.68-.58l.32-.07c.05,0,.08,0,.08.1v.46A.5.5,0,0,1,65,7a.92.92,0,0,1-.47.19.47.47,0,0,1-.49-.47m0-.57c-.49.18-.64.36-.64.67a.72.72,0,0,0,.24.54.78.78,0,0,0,.54.18,1.25,1.25,0,0,0,.57-.19,1.1,1.1,0,0,1,.3-.16s.09.06.13.11a.61.61,0,0,0,.5.24.83.83,0,0,0,.66-.34c0-.06,0-.1-.06-.1l-.1,0a.53.53,0,0,1-.2,0c-.3,0-.37-.32-.35-.68l0-1.36c0-.58-.25-.91-.81-.91s-1.45.55-1.45,1a.1.1,0,0,0,.11.11A.89.89,0,0,0,64,5.15c.06-.05.07-.14.07-.26s.28-.36.5-.36c.49,0,.58.39.57.68v.36c0,.12,0,.19-.14.23Zm-4.24.41c0,.56,0,.64-.3.68l-.16,0a.14.14,0,0,0,0,.2c.22,0,.45,0,.73,0s.5,0,.71,0a.14.14,0,0,0,0-.2l-.14,0c-.28,0-.3-.12-.3-.68V5.34a.65.65,0,0,1,.12-.46.85.85,0,0,1,.66-.28.68.68,0,0,1,.74.78V6.54c0,.56,0,.63-.3.68l-.15,0a.14.14,0,0,0,0,.2c.21,0,.44,0,.72,0s.5,0,.73,0a.14.14,0,0,0,0-.2l-.17,0c-.28,0-.3-.12-.3-.68V5.2a.86.86,0,0,0-.91-1,2.16,2.16,0,0,0-1.09.4.08.08,0,0,1-.09-.09,3,3,0,0,1,0-.36.11.11,0,0,0-.09-.06,3.75,3.75,0,0,1-.78.38.1.1,0,0,0,0,.14l.07.05c.21.14.21.18.21.48Zm-2.59,0c0,.56,0,.63-.3.68l-.15,0a.15.15,0,0,0,0,.2q.3,0,.72,0l.86,0a.14.14,0,0,0,0-.2l-.28,0c-.3,0-.32-.12-.32-.68V5.48a1.14,1.14,0,0,1,.11-.6.33.33,0,0,1,.28-.16.63.63,0,0,1,.34.13.29.29,0,0,0,.17.05.35.35,0,0,0,.34-.36.33.33,0,0,0-.35-.31,1.55,1.55,0,0,0-.86.47s0,0,0-.07V4.18s0,0-.06-.06A5.07,5.07,0,0,1,57,4.5a.11.11,0,0,0,0,.14l.07.05c.21.14.21.18.21.48ZM53.76,5a4.45,4.45,0,0,1,0-.67s0,0-.08-.06a2.94,2.94,0,0,1-.84.14s-.06.13,0,.17l.09,0c.24.1.24.17.24.66V6.55c0,.63.25,1,.94,1a2.15,2.15,0,0,0,1.08-.4s.07,0,.07.1v.32a.1.1,0,0,0,.09.06,3.86,3.86,0,0,1,1-.29c.06,0,0-.19,0-.23a1.15,1.15,0,0,1-.31,0c-.22,0-.24-.23-.24-.85V5c0-.28,0-.53,0-.67s0,0-.07-.06a3.05,3.05,0,0,1-.91.14.1.1,0,0,0,0,.17l.1,0c.23.1.29.11.29.62V6.48a.55.55,0,0,1-.16.45,1,1,0,0,1-.63.23c-.6,0-.73-.36-.73-.89ZM51.58,6c0,.6-.21,1.32-.9,1.32s-1-.77-1-1.48.38-1.35.89-1.35c.75,0,1,.85,1,1.51m-.91-1.74A1.64,1.64,0,0,0,49,5.91a1.54,1.54,0,0,0,1.6,1.61,1.59,1.59,0,0,0,1.64-1.68,1.56,1.56,0,0,0-1.58-1.61M47.16,6.4A7,7,0,0,1,47,8.35a.34.34,0,0,1-.31.21,1.28,1.28,0,0,1-.33-.06,1,1,0,0,0-.29,0c-.16,0-.28.22-.28.35S46,9,46.08,9a1.7,1.7,0,0,0,1.54-1.12,4.32,4.32,0,0,0,.18-1.52V3.45c0-.83,0-.93.47-1h.12s0-.17,0-.2c-.32,0-.58,0-.89,0l-1.05,0s-.06.17,0,.2h.19c.46,0,.54.14.54,1ZM41.21,9.35a.52.52,0,0,0,.5-.36c.38-.85,1-2.21,1.28-2.73l.44-.9c.26-.55.4-.78.66-.82l.13,0a.12.12,0,0,0,0-.19l-.6,0-.68,0c-.06,0-.07.15,0,.19l.24,0c.14,0,.19.08.19.13a3.46,3.46,0,0,1-.27.78l-.27.62a3.4,3.4,0,0,1-.29.58,3.84,3.84,0,0,1-.22-.56L42,5.39a5.57,5.57,0,0,1-.23-.74c0-.05.06-.08.17-.1l.2,0s0-.17,0-.19l-.67,0-.74,0c-.07,0-.07.15,0,.19l.2,0c.27.06.32.24.46.61L42,6.83a1.36,1.36,0,0,1,.14.54A1.33,1.33,0,0,1,42,7.7a5.65,5.65,0,0,1-.45.87.31.31,0,0,1-.26.14h-.15a.29.29,0,0,0-.31.31.31.31,0,0,0,.34.33M40,2.85c0-.34,0-.73,0-1,0,0,0,0-.08,0a6,6,0,0,1-.84.33.11.11,0,0,0,0,.15l.08.05c.24.14.24.19.24.64V6.54c0,.56,0,.64-.29.68l-.18,0a.14.14,0,0,0,0,.2c.24,0,.47,0,.75,0s.5,0,.76,0a.14.14,0,0,0,0-.2l-.18,0c-.29,0-.3-.12-.3-.68ZM35.43,6.54c0,.56,0,.64-.3.68l-.19,0a.14.14,0,0,0,0,.2c.25,0,.49,0,.77,0s.5,0,.73,0c0,0,.07-.17,0-.2l-.16,0c-.28,0-.3-.12-.3-.68V5.23c0-.27,0-.31.17-.43a.91.91,0,0,1,.61-.21c.5,0,.74.33.74.83V6.54c0,.56,0,.63-.3.68l-.15,0a.14.14,0,0,0,0,.2c.21,0,.45,0,.73,0s.49,0,.78,0a.14.14,0,0,0,0-.2l-.21,0c-.28,0-.3-.12-.3-.68V5.24a.91.91,0,0,0-1-1A1.75,1.75,0,0,0,36,4.64s0-.08,0-.15V2.85c0-.34,0-.73,0-1a.09.09,0,0,0-.08,0,6.48,6.48,0,0,1-.84.33.11.11,0,0,0,0,.15l.08.05c.23.14.24.19.24.65Zm-.8-1.87a.26.26,0,0,0,0-.33h-.87c-.13,0-.14,0-.14-.15V3.84s-.13,0-.16,0a1.88,1.88,0,0,1-.33.46,1.54,1.54,0,0,1-.5.24.15.15,0,0,0,0,.17h.22c.16,0,.17,0,.17.22V6.68c0,.47.14.84.81.84a1.05,1.05,0,0,0,.81-.36s0-.13-.07-.13-.13.09-.2.11a.65.65,0,0,1-.21,0c-.51,0-.57-.42-.57-.87V4.85c0-.16,0-.18.14-.18ZM29,6.54c0,.56,0,.64-.29.68l-.17,0a.14.14,0,0,0,0,.2c.22,0,.45,0,.73,0s.5,0,.71,0a.14.14,0,0,0,0-.2l-.14,0c-.28,0-.29-.12-.29-.68V5.34a.65.65,0,0,1,.11-.46.86.86,0,0,1,.67-.28c.53,0,.73.33.73.78V6.54c0,.56,0,.63-.3.68l-.14,0a.14.14,0,0,0,0,.2c.21,0,.45,0,.73,0s.49,0,.73,0a.14.14,0,0,0,0-.2l-.17,0c-.28,0-.29-.12-.29-.68V5.2a.87.87,0,0,0-.91-1,2.2,2.2,0,0,0-1.1.4.08.08,0,0,1-.08-.09c0-.07,0-.18,0-.36a.08.08,0,0,0-.08-.06,4,4,0,0,1-.78.38.11.11,0,0,0,0,.14l.07.05c.21.14.21.18.21.48ZM27.31,6c0,.6-.21,1.32-.89,1.32s-1-.77-1-1.48.38-1.35.9-1.35c.74,0,1,.85,1,1.51M26.4,4.23a1.64,1.64,0,0,0-1.66,1.68,1.54,1.54,0,0,0,1.6,1.61A1.59,1.59,0,0,0,28,5.84,1.55,1.55,0,0,0,26.4,4.23m-6.9-.7a3,3,0,0,1-.4-1.29,5.33,5.33,0,0,1-.65,0l-.61,0c-.07,0-.07.15,0,.2h.13c.47.07.54.18.52.67s-.05,1.09-.08,1.74-.09,1.2-.14,1.72-.15.59-.48.64l-.17,0s0,.16,0,.2l.8,0c.29,0,.6,0,.86,0a.13.13,0,0,0,0-.2l-.3,0c-.3,0-.35-.15-.35-.73s0-1.36.06-1.83,0-.91.08-1.39h0c.17.36.34.77.5,1.12L20,5.9a15.68,15.68,0,0,1,.69,1.56s.05,0,.07,0a.11.11,0,0,0,.08,0c.14-.36.49-1.09.84-1.78l.69-1.36c.16-.31.46-.93.51-1h0l0,3.25c0,.5,0,.63-.38.67l-.23,0a.14.14,0,0,0,0,.2l.94,0,.92,0a.15.15,0,0,0,0-.2l-.25,0c-.36,0-.35-.25-.38-.64-.06-1.12-.07-2.56-.08-3.39,0-.54.05-.69.54-.74h.17a.17.17,0,0,0,0-.2l-.7,0a4.62,4.62,0,0,1-.58,0,4.44,4.44,0,0,1-.59,1.5l-.73,1.49c-.2.39-.39.8-.6,1.17h0c-.19-.35-.36-.7-.54-1.07Zm-6.83,0c.09-.23.17-.42.19-.46h0c0,.1.11.31.18.49l.42,1.27c.07.22,0,.25-.17.25h-1c-.22,0-.23,0-.17-.19Zm1.4,3.11a1.71,1.71,0,0,1,.1.42c0,.07-.11.12-.27.14l-.23,0a.14.14,0,0,0,0,.2c.22,0,.52,0,.89,0s.63,0,.95,0a.17.17,0,0,0,0-.2l-.21,0c-.34,0-.44-.16-.67-.83L13.59,3.26c-.12-.35-.25-.7-.35-1,0,0-.07-.07-.11-.07a1,1,0,0,1-.41.3,1.13,1.13,0,0,1-.13.55l-.8,2.11c-.32.87-.54,1.38-.68,1.73a.54.54,0,0,1-.47.39l-.26,0a.17.17,0,0,0,0,.2c.21,0,.49,0,.75,0s.6,0,.81,0a.13.13,0,0,0,0-.2l-.25,0c-.19,0-.23-.07-.23-.16a2.71,2.71,0,0,1,.17-.65l.27-.82c.06-.16.11-.18.3-.18h1.18c.23,0,.26,0,.32.19ZM7.47,2.73c0-.14,0-.18.11-.2a1,1,0,0,1,.36,0A1,1,0,0,1,9.1,3.54c0,.73-.42,1-1.22,1-.4,0-.41,0-.41-.22ZM7.47,5c0-.16,0-.2.46-.2,1.24,0,1.55.72,1.55,1.33,0,.78-.53,1.09-1.23,1.09A.78.78,0,0,1,7.64,7a1.55,1.55,0,0,1-.17-.86ZM6.84,6.24c0,.82,0,.91-.43,1l-.14,0a.15.15,0,0,0,0,.19l.9,0,.93,0c1.41,0,2.08-.6,2.08-1.51a1.3,1.3,0,0,0-1-1.3c-.08,0-.14,0-.14-.12a1.12,1.12,0,0,0,.79-1.06,1,1,0,0,0-.59-1,3,3,0,0,0-1.31-.22c-.73,0-1.26,0-1.68.07a.12.12,0,0,0,0,.19l.25,0c.36,0,.39.18.39.76Zm-4,1C1.34,7.29.78,5.8.78,4.64c0-1.7,1.05-2.26,1.86-2.26,1.49,0,2.06,1.39,2.06,2.68,0,1.53-.89,2.23-1.82,2.23m-.11.24A2.66,2.66,0,0,0,5.48,4.82,2.57,2.57,0,0,0,2.77,2.14,2.69,2.69,0,0,0,0,4.89,2.61,2.61,0,0,0,2.77,7.53"/></svg>