<svg id="レイヤー_1" data-name="レイヤー 1" xmlns="http://www.w3.org/2000/svg" viewBox="0 0 94.96 9.92"><defs><style>.cls-1{fill:#231815;}</style></defs><path class="cls-1" d="M91.79,6.46c0,.6,0,.73-.33.75l-.32,0s0,.17,0,.19l.94,0,.92,0c.06,0,.07-.15,0-.19l-.33,0c-.32,0-.33-.15-.33-.75v-3c0-.44,0-.83,0-1a.12.12,0,0,0-.08,0A3.49,3.49,0,0,1,91,2.87.1.1,0,0,0,91,3l.38,0c.35,0,.37.2.37.73ZM89.73,7.52a.41.41,0,0,0,.43-.43.43.43,0,0,0-.43-.46.44.44,0,0,0-.44.46.43.43,0,0,0,.44.43M87.11,2.65C88,2.65,88,4.24,88,5S88,7.29,87.11,7.29,86.19,5.7,86.19,5s.07-2.32.92-2.32m0-.23C86,2.42,85.5,3.79,85.5,5S86,7.52,87.11,7.52,88.73,6.19,88.73,5s-.48-2.55-1.62-2.55m-4,4.51c-.2,0-.24,0-.24-.07s.07-.17.71-.91l.48-.54a2.7,2.7,0,0,0,.83-1.72,1.2,1.2,0,0,0-1.28-1.27,1.63,1.63,0,0,0-1.57,1.1.13.13,0,0,0,.19.1,1.13,1.13,0,0,1,1-.78c.63,0,1,.43,1,1.14a3.44,3.44,0,0,1-1.11,2.14A6.6,6.6,0,0,1,82,7.25s-.09.06-.09.08a.11.11,0,0,0,.06.1c.17,0,.42,0,.86,0h1.13l1,0a3.62,3.62,0,0,0,.35-.95.15.15,0,0,0-.17,0,1.07,1.07,0,0,1-.25.32,1.12,1.12,0,0,1-.73.17ZM79.94,2.65c.86,0,.92,1.59.92,2.32s-.06,2.32-.92,2.32S79,5.7,79,5s.06-2.32.92-2.32m0-.23c-1.14,0-1.61,1.37-1.61,2.55s.47,2.55,1.61,2.55S81.56,6.19,81.56,5s-.48-2.55-1.62-2.55M75.75,6.93c-.2,0-.24,0-.24-.07s.07-.17.71-.91l.47-.54a2.73,2.73,0,0,0,.84-1.72,1.21,1.21,0,0,0-1.29-1.27,1.64,1.64,0,0,0-1.57,1.1.13.13,0,0,0,.19.1,1.15,1.15,0,0,1,1-.78c.64,0,1,.43,1,1.14a3.4,3.4,0,0,1-1.12,2.14,6.28,6.28,0,0,1-1.19,1.13c-.05,0-.08.06-.08.08a.11.11,0,0,0,.05.1c.17,0,.43,0,.87,0h1.13l1,0a3.25,3.25,0,0,0,.36-.95.15.15,0,0,0-.17,0,1.27,1.27,0,0,1-.25.32,1.14,1.14,0,0,1-.73.17ZM71.64,2.85c0-.34,0-.73,0-1a.07.07,0,0,0-.07,0,5.86,5.86,0,0,1-.85.32s0,.14,0,.16l.08.05c.24.14.24.18.24.64V6.54c0,.56,0,.64-.29.67l-.18,0a.13.13,0,0,0,0,.19l.75,0,.76,0a.13.13,0,0,0,0-.19l-.18,0c-.28,0-.3-.11-.3-.67ZM68.1,6.7c0-.3.23-.42.69-.58a1.72,1.72,0,0,1,.32-.07s.08,0,.08.1l0,.46c0,.16,0,.27-.1.36a.88.88,0,0,1-.48.2.48.48,0,0,1-.49-.47m.05-.57c-.5.18-.65.36-.65.66a.76.76,0,0,0,.24.55.81.81,0,0,0,.55.18,1.08,1.08,0,0,0,.56-.2,1.53,1.53,0,0,1,.3-.15s.1.06.13.11a.62.62,0,0,0,.51.24.81.81,0,0,0,.65-.34c0-.06,0-.11,0-.11s-.07,0-.11.06a.43.43,0,0,1-.19,0c-.3,0-.37-.32-.36-.68l0-1.36c0-.58-.25-.91-.81-.91s-1.45.55-1.45,1a.1.1,0,0,0,.11.11.89.89,0,0,0,.44-.15c.06-.05.07-.14.08-.27s.28-.35.5-.35c.48,0,.57.39.57.68v.36c0,.12,0,.19-.13.23Zm-4.25.41c0,.56,0,.64-.3.67l-.16,0s0,.17,0,.19l.73,0,.71,0a.13.13,0,0,0,0-.19l-.14,0c-.28,0-.29-.11-.29-.67V5.34a.65.65,0,0,1,.11-.46.86.86,0,0,1,.67-.28.67.67,0,0,1,.73.77V6.54c0,.56,0,.63-.3.67l-.14,0a.13.13,0,0,0,0,.19l.73,0,.73,0a.13.13,0,0,0,0-.19l-.17,0c-.28,0-.29-.11-.29-.67V5.2a.87.87,0,0,0-.92-1,2.1,2.1,0,0,0-1.09.4.08.08,0,0,1-.08-.09c0-.07,0-.19,0-.36a.08.08,0,0,0-.08-.06,4,4,0,0,1-.78.38.11.11,0,0,0,0,.14l.07.05c.21.14.21.18.21.48Zm-2.59,0c0,.56,0,.63-.29.67l-.15,0a.13.13,0,0,0,0,.19l.72,0,.87,0a.13.13,0,0,0,0-.19l-.28,0c-.3,0-.31-.11-.31-.67V5.48a1.13,1.13,0,0,1,.1-.6.34.34,0,0,1,.28-.16.67.67,0,0,1,.34.12.28.28,0,0,0,.18.06.34.34,0,0,0,.33-.36.32.32,0,0,0-.35-.31,1.58,1.58,0,0,0-.86.47.1.1,0,0,1,0-.07V4.18s0,0-.06-.06A5.64,5.64,0,0,1,61,4.5a.11.11,0,0,0,0,.14l.07.05c.21.14.21.18.21.48ZM57.8,5a5.31,5.31,0,0,1,0-.68s0,0-.08,0a2.86,2.86,0,0,1-.83.14c-.06,0-.06.13,0,.17l.1,0c.23.1.23.17.23.66v1.3c0,.64.26,1,.94,1a2,2,0,0,0,1.08-.41s.07,0,.07.11v.32a.11.11,0,0,0,.09.06,4,4,0,0,1,1-.29c.07,0,.06-.19,0-.23a1.13,1.13,0,0,1-.3,0c-.22,0-.24-.23-.24-.85V5a6.25,6.25,0,0,1,0-.68s0,0-.07,0a3.11,3.11,0,0,1-.91.14.1.1,0,0,0,0,.17l.1,0c.23.09.29.11.29.62V6.47a.56.56,0,0,1-.16.46,1.06,1.06,0,0,1-.63.23c-.59,0-.72-.36-.72-.9ZM55.61,6c0,.6-.21,1.32-.89,1.32s-1-.77-1-1.48.38-1.35.9-1.35c.74,0,1,.84,1,1.51M54.7,4.23A1.64,1.64,0,0,0,53,5.91a1.54,1.54,0,0,0,1.6,1.61,1.59,1.59,0,0,0,1.64-1.68A1.55,1.55,0,0,0,54.7,4.23M51.19,6.4A7,7,0,0,1,51,8.35a.33.33,0,0,1-.31.21,1.28,1.28,0,0,1-.33-.06,1,1,0,0,0-.29-.05c-.16,0-.28.23-.28.36S50,9,50.12,9a1.68,1.68,0,0,0,1.53-1.13,4.23,4.23,0,0,0,.18-1.51V3.45c0-.83,0-.94.48-1h.12a.17.17,0,0,0,0-.2c-.31,0-.58,0-.89,0s-.59,0-1,0a.17.17,0,0,0,0,.2h.2c.46,0,.53.13.53,1ZM45.25,9.35a.52.52,0,0,0,.5-.37c.38-.84,1-2.2,1.27-2.72l.44-.9c.27-.55.41-.78.66-.83l.14,0a.14.14,0,0,0,0-.2l-.59,0-.69,0a.13.13,0,0,0,0,.2l.24,0c.14,0,.18.08.18.13a3.46,3.46,0,0,1-.27.78l-.26.62a3.45,3.45,0,0,1-.29.57,4.17,4.17,0,0,1-.23-.55l-.25-.72a7.23,7.23,0,0,1-.22-.73c0-.05.06-.08.17-.1l.19,0a.13.13,0,0,0,0-.2l-.68,0c-.26,0-.49,0-.74,0a.14.14,0,0,0,0,.2l.19,0c.27,0,.33.24.46.61L46,6.83a1.45,1.45,0,0,1,.13.53,1,1,0,0,1-.08.34,4.53,4.53,0,0,1-.45.86.27.27,0,0,1-.26.14h-.14A.3.3,0,0,0,44.9,9a.32.32,0,0,0,.35.33m-1.2-6.5c0-.34,0-.73,0-1a.09.09,0,0,0-.08,0,6.26,6.26,0,0,1-.84.32s0,.14,0,.16l.08.05c.23.14.24.18.24.64V6.54c0,.56,0,.64-.3.67l-.18,0s0,.17,0,.19l.75,0,.75,0c.06,0,.07-.15,0-.19l-.19,0c-.28,0-.3-.11-.3-.67ZM39.46,6.54c0,.56,0,.64-.29.67l-.2,0s0,.17,0,.19l.76,0,.73,0c.06,0,.07-.16,0-.19l-.16,0c-.29,0-.3-.11-.3-.67V5.23c0-.28,0-.32.16-.43a.93.93,0,0,1,.61-.21c.5,0,.74.33.74.83V6.54c0,.56,0,.63-.29.67l-.16,0c-.05,0,0,.17,0,.19l.72,0,.78,0a.13.13,0,0,0,0-.19l-.21,0c-.28,0-.29-.11-.29-.67V5.23a.91.91,0,0,0-1-1,1.83,1.83,0,0,0-1,.4s0-.07,0-.14V2.85c0-.34,0-.73,0-1,0,0,0,0-.08,0a5.79,5.79,0,0,1-.84.32s0,.14,0,.16l.08.05c.24.14.24.18.24.64Zm-.79-1.87a.26.26,0,0,0,0-.33h-.87c-.13,0-.14,0-.14-.15V3.84s-.12,0-.16,0a1.88,1.88,0,0,1-.33.46,1.44,1.44,0,0,1-.5.24.14.14,0,0,0,0,.17h.22c.15,0,.16,0,.16.22V6.68c0,.47.14.84.81.84a1.09,1.09,0,0,0,.82-.36s0-.13-.08-.13-.12.08-.19.11a.78.78,0,0,1-.21,0c-.52,0-.57-.42-.57-.87V4.85c0-.16,0-.18.14-.18ZM33.06,6.54c0,.56,0,.64-.3.67l-.16,0a.13.13,0,0,0,0,.19l.73,0,.71,0c.06,0,.07-.15,0-.19l-.14,0c-.28,0-.3-.11-.3-.67V5.34a.65.65,0,0,1,.12-.46.85.85,0,0,1,.66-.28.67.67,0,0,1,.73.77V6.54c0,.56,0,.63-.29.67l-.15,0c-.05,0,0,.17,0,.19l.72,0,.73,0c.06,0,.07-.15,0-.19l-.17,0c-.28,0-.3-.11-.3-.67V5.2a.86.86,0,0,0-.91-1,2,2,0,0,0-1.09.4.08.08,0,0,1-.09-.09,2.88,2.88,0,0,1,0-.36.11.11,0,0,0-.09-.06,3.75,3.75,0,0,1-.78.38.11.11,0,0,0,0,.14l.08.05c.21.14.21.18.21.48ZM31.35,6c0,.6-.21,1.32-.9,1.32s-1-.77-1-1.48.38-1.35.89-1.35c.74,0,1,.84,1,1.51m-.91-1.74a1.64,1.64,0,0,0-1.66,1.68,1.54,1.54,0,0,0,1.59,1.61A1.59,1.59,0,0,0,32,5.84a1.55,1.55,0,0,0-1.58-1.61m-6.9-.7a3.07,3.07,0,0,1-.41-1.29,5,5,0,0,1-.64,0c-.2,0-.39,0-.62,0a.15.15,0,0,0,0,.2H22c.48.06.54.18.53.67s0,1.09-.09,1.74-.09,1.2-.13,1.71-.16.6-.49.64l-.17,0a.15.15,0,0,0,0,.19l.79,0,.87,0c.05,0,.06-.15,0-.19l-.3,0c-.31,0-.35-.14-.35-.72s0-1.36.05-1.83.05-.91.08-1.39h0c.17.36.33.76.5,1.12L24,5.9a15.63,15.63,0,0,1,.68,1.56.13.13,0,0,0,.07,0s.07,0,.08,0c.14-.36.49-1.1.84-1.78l.7-1.37c.15-.3.45-.92.5-1h0l0,3.25c0,.5,0,.63-.38.66l-.23,0a.15.15,0,0,0,0,.19l.94,0,.92,0a.13.13,0,0,0,0-.19l-.25,0c-.37,0-.36-.24-.38-.63C27.5,5.46,27.5,4,27.48,3.19c0-.54.06-.69.55-.74h.16s0-.17,0-.2c-.24,0-.5,0-.69,0a4.16,4.16,0,0,1-.58,0,4.75,4.75,0,0,1-.6,1.5l-.73,1.49c-.2.39-.39.8-.6,1.17h0c-.18-.35-.35-.71-.53-1.07Zm-6.83,0a2.87,2.87,0,0,1,.19-.46h0a4.93,4.93,0,0,1,.18.49l.42,1.27c.07.21.06.24-.17.24h-1c-.22,0-.22,0-.16-.18ZM18.1,6.66a1.47,1.47,0,0,1,.11.41c0,.08-.11.13-.28.14l-.22,0a.12.12,0,0,0,0,.19l.9,0,.94,0s.06-.15,0-.19l-.21,0c-.33,0-.44-.15-.66-.82L17.62,3.26c-.12-.35-.24-.71-.34-1a.12.12,0,0,0-.12-.07.92.92,0,0,1-.4.3,1.18,1.18,0,0,1-.14.55l-.79,2.1c-.33.88-.55,1.38-.69,1.74a.51.51,0,0,1-.47.38l-.25,0a.15.15,0,0,0,0,.19l.75,0,.81,0a.12.12,0,0,0,0-.19l-.26,0c-.19,0-.23-.06-.23-.15a3,3,0,0,1,.18-.65L16,5.59c0-.16.1-.18.29-.18h1.18c.24,0,.27,0,.32.19ZM11.51,2.73c0-.14,0-.18.11-.2a1,1,0,0,1,.36,0,1,1,0,0,1,1.16,1.06c0,.73-.43,1-1.23,1-.39,0-.4,0-.4-.21Zm0,2.24c0-.16,0-.2.45-.2,1.24,0,1.55.71,1.55,1.33,0,.78-.53,1.09-1.22,1.09A.76.76,0,0,1,11.67,7a1.51,1.51,0,0,1-.16-.85Zm-.64,1.27c0,.82,0,.9-.43,1l-.14,0a.14.14,0,0,0,0,.19l.89,0,.94,0c1.4,0,2.07-.6,2.07-1.51a1.29,1.29,0,0,0-1-1.3c-.09,0-.15,0-.15-.12a1.12,1.12,0,0,0,.79-1.07,1,1,0,0,0-.59-1,3,3,0,0,0-1.31-.22c-.72,0-1.25,0-1.67.06-.07,0-.07.15,0,.2l.25,0c.35,0,.38.18.38.76Zm-4,1c-1.54,0-2.1-1.49-2.1-2.65,0-1.71,1.06-2.26,1.87-2.26,1.49,0,2.05,1.39,2.05,2.68,0,1.53-.88,2.23-1.82,2.23m-.1.24a2.66,2.66,0,0,0,2.7-2.72,2.56,2.56,0,0,0-2.7-2.67A2.69,2.69,0,0,0,4,4.89,2.62,2.62,0,0,0,6.81,7.53M0,0H.18V9.2H0Z"/></svg>