<?xml version="1.0" encoding="utf-8"?>
<!-- Generator: Adobe Illustrator 25.4.1, SVG Export Plug-In . SVG Version: 6.00 Build 0)  -->
<svg version="1.1" id="レイヤー_1" xmlns="http://www.w3.org/2000/svg" xmlns:xlink="http://www.w3.org/1999/xlink" x="0px"
	 y="0px" viewBox="0 0 623.7 175" style="enable-background:new 0 0 623.7 175;" xml:space="preserve">
<style type="text/css">
	.st0{fill:none;stroke:#DCDDDD;stroke-miterlimit:10;}
</style>
<line class="st0" x1="0" y1="0.5" x2="623.7" y2="0.5"/>
<line class="st0" x1="0" y1="4.8" x2="623.7" y2="4.8"/>
<line class="st0" x1="0" y1="9" x2="623.7" y2="9"/>
<line class="st0" x1="0" y1="13.3" x2="623.7" y2="13.3"/>
<line class="st0" x1="0" y1="17.6" x2="623.7" y2="17.6"/>
<line class="st0" x1="0" y1="21.8" x2="623.7" y2="21.8"/>
<line class="st0" x1="0" y1="26.1" x2="623.7" y2="26.1"/>
<line class="st0" x1="0" y1="30.4" x2="623.7" y2="30.4"/>
<line class="st0" x1="0" y1="34.6" x2="623.7" y2="34.6"/>
<line class="st0" x1="0" y1="38.9" x2="623.7" y2="38.9"/>
<line class="st0" x1="0" y1="43.2" x2="623.7" y2="43.2"/>
<line class="st0" x1="0" y1="47.4" x2="623.7" y2="47.4"/>
<line class="st0" x1="0" y1="51.7" x2="623.7" y2="51.7"/>
<line class="st0" x1="0" y1="56" x2="623.7" y2="56"/>
<line class="st0" x1="0" y1="60.2" x2="623.7" y2="60.2"/>
<line class="st0" x1="0" y1="64.5" x2="623.7" y2="64.5"/>
<line class="st0" x1="0" y1="68.8" x2="623.7" y2="68.8"/>
<line class="st0" x1="0" y1="73" x2="623.7" y2="73"/>
<line class="st0" x1="0" y1="77.3" x2="623.7" y2="77.3"/>
<line class="st0" x1="0" y1="81.6" x2="623.7" y2="81.6"/>
<line class="st0" x1="0" y1="85.8" x2="623.7" y2="85.8"/>
<line class="st0" x1="0" y1="90.1" x2="623.7" y2="90.1"/>
<line class="st0" x1="0" y1="94.4" x2="623.7" y2="94.4"/>
<line class="st0" x1="0" y1="98.6" x2="623.7" y2="98.6"/>
<line class="st0" x1="0" y1="102.9" x2="623.7" y2="102.9"/>
<line class="st0" x1="0" y1="107.2" x2="623.7" y2="107.2"/>
<line class="st0" x1="0" y1="111.4" x2="623.7" y2="111.4"/>
<line class="st0" x1="0" y1="115.7" x2="623.7" y2="115.7"/>
<line class="st0" x1="0" y1="120" x2="623.7" y2="120"/>
<line class="st0" x1="0" y1="124.2" x2="623.7" y2="124.2"/>
<line class="st0" x1="0" y1="128.5" x2="623.7" y2="128.5"/>
<line class="st0" x1="0" y1="132.8" x2="623.7" y2="132.8"/>
<line class="st0" x1="0" y1="137" x2="623.7" y2="137"/>
<line class="st0" x1="0" y1="141.3" x2="623.7" y2="141.3"/>
<line class="st0" x1="0" y1="145.6" x2="623.7" y2="145.6"/>
<line class="st0" x1="0" y1="149.9" x2="623.7" y2="149.9"/>
<line class="st0" x1="0" y1="154.1" x2="623.7" y2="154.1"/>
<line class="st0" x1="0" y1="158.4" x2="623.7" y2="158.4"/>
<line class="st0" x1="0" y1="162.7" x2="623.7" y2="162.7"/>
<line class="st0" x1="0" y1="166.9" x2="623.7" y2="166.9"/>
<line class="st0" x1="0" y1="171.2" x2="623.7" y2="171.2"/>
<line class="st0" x1="0" y1="175.5" x2="623.7" y2="175.5"/>
</svg>
