<?xml version="1.0" encoding="utf-8"?>
<!-- Generator: Adobe Illustrator 25.4.1, SVG Export Plug-In . SVG Version: 6.00 Build 0)  -->
<svg version="1.1" id="レイヤー_1" xmlns="http://www.w3.org/2000/svg" xmlns:xlink="http://www.w3.org/1999/xlink" x="0px"
	 y="0px" viewBox="0 0 806 100.5" style="enable-background:new 0 0 806 100.5;" xml:space="preserve">
<style type="text/css">
	.st0{fill:none;stroke:#DCDDDD;stroke-width:0.5;stroke-miterlimit:10;}
</style>
<line class="st0" x1="0" y1="0.5" x2="806" y2="0.5"/>
<line class="st0" x1="0" y1="2.9" x2="806" y2="2.9"/>
<line class="st0" x1="0" y1="5.4" x2="806" y2="5.4"/>
<line class="st0" x1="0" y1="7.8" x2="806" y2="7.8"/>
<line class="st0" x1="0" y1="10.2" x2="806" y2="10.2"/>
<line class="st0" x1="0" y1="12.7" x2="806" y2="12.7"/>
<line class="st0" x1="0" y1="15.1" x2="806" y2="15.1"/>
<line class="st0" x1="0" y1="17.5" x2="806" y2="17.5"/>
<line class="st0" x1="0" y1="19.9" x2="806" y2="19.9"/>
<line class="st0" x1="0" y1="22.4" x2="806" y2="22.4"/>
<line class="st0" x1="0" y1="24.8" x2="806" y2="24.8"/>
<line class="st0" x1="0" y1="27.2" x2="806" y2="27.2"/>
<line class="st0" x1="0" y1="29.7" x2="806" y2="29.7"/>
<line class="st0" x1="0" y1="32.1" x2="806" y2="32.1"/>
<line class="st0" x1="0" y1="34.5" x2="806" y2="34.5"/>
<line class="st0" x1="0" y1="37" x2="806" y2="37"/>
<line class="st0" x1="0" y1="39.4" x2="806" y2="39.4"/>
<line class="st0" x1="0" y1="41.8" x2="806" y2="41.8"/>
<line class="st0" x1="0" y1="44.2" x2="806" y2="44.2"/>
<line class="st0" x1="0" y1="46.7" x2="806" y2="46.7"/>
<line class="st0" x1="0" y1="49.1" x2="806" y2="49.1"/>
<line class="st0" x1="0" y1="51.5" x2="806" y2="51.5"/>
<line class="st0" x1="0" y1="54" x2="806" y2="54"/>
<line class="st0" x1="0" y1="56.4" x2="806" y2="56.4"/>
<line class="st0" x1="0" y1="58.8" x2="806" y2="58.8"/>
<line class="st0" x1="0" y1="61.3" x2="806" y2="61.3"/>
<line class="st0" x1="0" y1="63.7" x2="806" y2="63.7"/>
<line class="st0" x1="0" y1="66.1" x2="806" y2="66.1"/>
<line class="st0" x1="0" y1="68.5" x2="806" y2="68.5"/>
<line class="st0" x1="0" y1="71" x2="806" y2="71"/>
<line class="st0" x1="0" y1="73.4" x2="806" y2="73.4"/>
<line class="st0" x1="0" y1="75.8" x2="806" y2="75.8"/>
<line class="st0" x1="0" y1="78.3" x2="806" y2="78.3"/>
<line class="st0" x1="0" y1="80.7" x2="806" y2="80.7"/>
<line class="st0" x1="0" y1="83.1" x2="806" y2="83.1"/>
<line class="st0" x1="0" y1="85.6" x2="806" y2="85.6"/>
<line class="st0" x1="0" y1="88" x2="806" y2="88"/>
<line class="st0" x1="0" y1="90.4" x2="806" y2="90.4"/>
<line class="st0" x1="0" y1="92.8" x2="806" y2="92.8"/>
<line class="st0" x1="0" y1="95.3" x2="806" y2="95.3"/>
<line class="st0" x1="0" y1="97.7" x2="806" y2="97.7"/>
<line class="st0" x1="0" y1="100.1" x2="806" y2="100.1"/>
</svg>
