<?xml version="1.0" encoding="utf-8"?>
<!-- Generator: Adobe Illustrator 25.4.1, SVG Export Plug-In . SVG Version: 6.00 Build 0)  -->
<svg version="1.1" id="レイヤー_1" xmlns="http://www.w3.org/2000/svg" xmlns:xlink="http://www.w3.org/1999/xlink" x="0px"
	 y="0px" viewBox="0 0 85 85" style="enable-background:new 0 0 85 85;" xml:space="preserve">
<style type="text/css">
	.st0{fill:#9FA0A0;}
</style>
<g>
	<circle class="st0" cx="4" cy="4" r="4"/>
	<circle class="st0" cx="4" cy="13.6" r="4"/>
	<circle class="st0" cx="4" cy="23.2" r="4"/>
	<circle class="st0" cx="4" cy="32.9" r="4"/>
	<circle class="st0" cx="4" cy="42.5" r="4"/>
	<circle class="st0" cx="4" cy="52.1" r="4"/>
	<circle class="st0" cx="4" cy="61.8" r="4"/>
	<circle class="st0" cx="4" cy="71.4" r="4"/>
	<circle class="st0" cx="4" cy="81" r="4"/>
</g>
<g>
	<circle class="st0" cx="13.6" cy="4" r="4"/>
	<circle class="st0" cx="13.6" cy="13.6" r="4"/>
	<circle class="st0" cx="13.6" cy="23.2" r="4"/>
	<circle class="st0" cx="13.6" cy="32.9" r="4"/>
	<circle class="st0" cx="13.6" cy="42.5" r="4"/>
	<circle class="st0" cx="13.6" cy="52.1" r="4"/>
	<circle class="st0" cx="13.6" cy="61.8" r="4"/>
	<circle class="st0" cx="13.6" cy="71.4" r="4"/>
	<circle class="st0" cx="13.6" cy="81" r="4"/>
</g>
<g>
	<circle class="st0" cx="23.1" cy="4" r="4"/>
	<circle class="st0" cx="23.1" cy="13.6" r="4"/>
	<circle class="st0" cx="23.1" cy="23.2" r="4"/>
	<circle class="st0" cx="23.1" cy="32.9" r="4"/>
	<circle class="st0" cx="23.1" cy="42.5" r="4"/>
	<circle class="st0" cx="23.1" cy="52.1" r="4"/>
	<circle class="st0" cx="23.1" cy="61.8" r="4"/>
	<circle class="st0" cx="23.1" cy="71.4" r="4"/>
	<circle class="st0" cx="23.1" cy="81" r="4"/>
</g>
<g>
	<circle class="st0" cx="32.7" cy="4" r="4"/>
	<circle class="st0" cx="32.7" cy="13.6" r="4"/>
	<circle class="st0" cx="32.7" cy="23.2" r="4"/>
	<circle class="st0" cx="32.7" cy="32.9" r="4"/>
	<circle class="st0" cx="32.7" cy="42.5" r="4"/>
	<circle class="st0" cx="32.7" cy="52.1" r="4"/>
	<circle class="st0" cx="32.7" cy="61.8" r="4"/>
	<circle class="st0" cx="32.7" cy="71.4" r="4"/>
	<circle class="st0" cx="32.7" cy="81" r="4"/>
</g>
<g>
	<circle class="st0" cx="42.3" cy="4" r="4"/>
	<circle class="st0" cx="42.3" cy="13.6" r="4"/>
	<circle class="st0" cx="42.3" cy="23.2" r="4"/>
	<circle class="st0" cx="42.3" cy="32.9" r="4"/>
	<circle class="st0" cx="42.3" cy="42.5" r="4"/>
	<circle class="st0" cx="42.3" cy="52.1" r="4"/>
	<circle class="st0" cx="42.3" cy="61.8" r="4"/>
	<circle class="st0" cx="42.3" cy="71.4" r="4"/>
	<circle class="st0" cx="42.3" cy="81" r="4"/>
</g>
<g>
	<circle class="st0" cx="51.8" cy="4" r="4"/>
	<circle class="st0" cx="51.8" cy="13.6" r="4"/>
	<circle class="st0" cx="51.8" cy="23.2" r="4"/>
	<circle class="st0" cx="51.8" cy="32.9" r="4"/>
	<circle class="st0" cx="51.8" cy="42.5" r="4"/>
	<circle class="st0" cx="51.8" cy="52.1" r="4"/>
	<circle class="st0" cx="51.8" cy="61.8" r="4"/>
	<circle class="st0" cx="51.8" cy="71.4" r="4"/>
	<circle class="st0" cx="51.8" cy="81" r="4"/>
</g>
<g>
	<circle class="st0" cx="61.4" cy="4" r="4"/>
	<circle class="st0" cx="61.4" cy="13.6" r="4"/>
	<circle class="st0" cx="61.4" cy="23.2" r="4"/>
	<circle class="st0" cx="61.4" cy="32.9" r="4"/>
	<circle class="st0" cx="61.4" cy="42.5" r="4"/>
	<circle class="st0" cx="61.4" cy="52.1" r="4"/>
	<circle class="st0" cx="61.4" cy="61.8" r="4"/>
	<circle class="st0" cx="61.4" cy="71.4" r="4"/>
	<circle class="st0" cx="61.4" cy="81" r="4"/>
</g>
<g>
	<circle class="st0" cx="71" cy="4" r="4"/>
	<circle class="st0" cx="71" cy="13.6" r="4"/>
	<circle class="st0" cx="71" cy="23.2" r="4"/>
	<circle class="st0" cx="71" cy="32.9" r="4"/>
	<circle class="st0" cx="71" cy="42.5" r="4"/>
	<circle class="st0" cx="71" cy="52.1" r="4"/>
	<circle class="st0" cx="71" cy="61.8" r="4"/>
	<circle class="st0" cx="71" cy="71.4" r="4"/>
	<circle class="st0" cx="71" cy="81" r="4"/>
</g>
<g>
	<circle class="st0" cx="80.6" cy="4" r="4"/>
	<circle class="st0" cx="80.6" cy="13.6" r="4"/>
	<circle class="st0" cx="80.6" cy="23.2" r="4"/>
	<circle class="st0" cx="80.6" cy="32.9" r="4"/>
	<circle class="st0" cx="80.6" cy="42.5" r="4"/>
	<circle class="st0" cx="80.6" cy="52.1" r="4"/>
	<circle class="st0" cx="80.6" cy="61.8" r="4"/>
	<circle class="st0" cx="80.6" cy="71.4" r="4"/>
	<circle class="st0" cx="80.6" cy="81" r="4"/>
</g>
</svg>
