<svg id="レイヤー_1" data-name="レイヤー 1" xmlns="http://www.w3.org/2000/svg" viewBox="0 0 623.62 175.96"><defs><style>.cls-1{fill:none;stroke:#dcdddd;stroke-miterlimit:10;}</style></defs><line class="cls-1" y1="0.5" x2="623.62" y2="0.5"/><line class="cls-1" y1="4.77" x2="623.62" y2="4.77"/><line class="cls-1" y1="9.03" x2="623.62" y2="9.03"/><line class="cls-1" y1="13.3" x2="623.62" y2="13.3"/><line class="cls-1" y1="17.57" x2="623.62" y2="17.57"/><line class="cls-1" y1="21.84" x2="623.62" y2="21.84"/><line class="cls-1" y1="26.1" x2="623.62" y2="26.1"/><line class="cls-1" y1="30.37" x2="623.62" y2="30.37"/><line class="cls-1" y1="34.64" x2="623.62" y2="34.64"/><line class="cls-1" y1="38.91" x2="623.62" y2="38.91"/><line class="cls-1" y1="43.17" x2="623.62" y2="43.17"/><line class="cls-1" y1="47.44" x2="623.62" y2="47.44"/><line class="cls-1" y1="51.71" x2="623.62" y2="51.71"/><line class="cls-1" y1="55.97" x2="623.62" y2="55.97"/><line class="cls-1" y1="60.24" x2="623.62" y2="60.24"/><line class="cls-1" y1="64.51" x2="623.62" y2="64.51"/><line class="cls-1" y1="68.78" x2="623.62" y2="68.78"/><line class="cls-1" y1="73.04" x2="623.62" y2="73.04"/><line class="cls-1" y1="77.31" x2="623.62" y2="77.31"/><line class="cls-1" y1="81.58" x2="623.62" y2="81.58"/><line class="cls-1" y1="85.85" x2="623.62" y2="85.85"/><line class="cls-1" y1="90.11" x2="623.62" y2="90.11"/><line class="cls-1" y1="94.38" x2="623.62" y2="94.38"/><line class="cls-1" y1="98.65" x2="623.62" y2="98.65"/><line class="cls-1" y1="102.92" x2="623.62" y2="102.92"/><line class="cls-1" y1="107.18" x2="623.62" y2="107.18"/><line class="cls-1" y1="111.45" x2="623.62" y2="111.45"/><line class="cls-1" y1="115.72" x2="623.62" y2="115.72"/><line class="cls-1" y1="119.98" x2="623.62" y2="119.98"/><line class="cls-1" y1="124.25" x2="623.62" y2="124.25"/><line class="cls-1" y1="128.52" x2="623.62" y2="128.52"/><line class="cls-1" y1="132.79" x2="623.62" y2="132.79"/><line class="cls-1" y1="137.05" x2="623.62" y2="137.05"/><line class="cls-1" y1="141.32" x2="623.62" y2="141.32"/><line class="cls-1" y1="145.59" x2="623.62" y2="145.59"/><line class="cls-1" y1="149.86" x2="623.62" y2="149.86"/><line class="cls-1" y1="154.12" x2="623.62" y2="154.12"/><line class="cls-1" y1="158.39" x2="623.62" y2="158.39"/><line class="cls-1" y1="162.66" x2="623.62" y2="162.66"/><line class="cls-1" y1="166.92" x2="623.62" y2="166.92"/><line class="cls-1" y1="171.19" x2="623.62" y2="171.19"/><line class="cls-1" y1="175.46" x2="623.62" y2="175.46"/></svg>